<?xml version="1.0" standalone="no"?>
<!DOCTYPE svg PUBLIC "-//W3C//DTD SVG 20010904//EN"
 "http://www.w3.org/TR/2001/REC-SVG-20010904/DTD/svg10.dtd">
<svg version="1.0" xmlns="http://www.w3.org/2000/svg"
 width="512.000000pt" height="512.000000pt" viewBox="0 0 512.000000 512.000000"
 preserveAspectRatio="xMidYMid meet">
<metadata>
Created by potrace 1.14, written by Peter Selinger 2001-2017
</metadata>
<g transform="translate(0.000000,512.000000) scale(0.100000,-0.100000)"
fill="#000000" stroke="none">
<path d="M153 5106 c-8 -14 -103 -27 -103 -14 0 5 -4 8 -8 8 -14 0 -12 -48 3
-60 8 -7 15 -9 15 -6 0 4 9 2 21 -4 11 -7 35 -13 52 -14 27 -2 32 -7 34 -31 1
-16 -2 -36 -7 -44 -8 -14 -9 -14 -10 2 0 9 -7 17 -15 17 -8 0 -15 5 -15 11 0
5 -4 8 -9 5 -5 -3 -14 1 -21 9 -16 20 -57 19 -77 -1 -12 -12 -14 -28 -10 -72
5 -50 10 -60 44 -88 21 -18 35 -35 32 -38 -3 -3 -22 -7 -42 -8 l-37 -3 0 -158
c0 -118 3 -156 12 -151 8 5 9 2 5 -9 -4 -10 -10 -24 -14 -34 -5 -12 -3 -14 8
-8 11 7 12 6 2 -6 -10 -12 -12 -143 -10 -565 l2 -549 140 -1 c77 -1 157 2 178
6 31 7 39 5 47 -10 12 -22 4 -30 -30 -30 -28 0 -55 -21 -43 -33 3 -4 39 -7 78
-7 88 0 126 -12 147 -48 17 -29 27 -106 15 -118 -4 -4 -7 -16 -7 -26 0 -10 -5
-18 -11 -18 -6 0 -8 9 -4 22 6 18 4 20 -11 14 -11 -5 -36 -10 -57 -13 -29 -4
-39 -11 -43 -30 -7 -28 -51 -53 -93 -53 -41 0 -183 31 -198 43 -7 5 -13 19
-13 30 0 11 -5 37 -12 58 -9 31 -15 38 -29 34 -12 -4 -23 1 -31 14 -22 35 -28
24 -28 -49 0 -74 11 -90 59 -90 11 0 27 -10 35 -22 18 -25 21 -53 6 -43 -5 3
-10 -1 -10 -9 0 -18 2 -19 24 -10 8 3 13 11 10 17 -2 7 6 13 18 13 22 1 23 -2
23 -74 0 -80 -7 -92 -44 -72 -14 7 -21 7 -21 0 0 -15 -26 -12 -40 5 -7 9 -21
13 -31 10 -11 -4 -19 -1 -19 5 0 7 9 11 23 8 17 -3 26 2 34 18 9 19 7 23 -11
28 -58 16 -56 22 -56 -178 l0 -184 63 3 64 2 -16 -61 c-17 -67 -50 -109 -72
-95 -27 17 -40 10 -37 -18 2 -21 9 -28 24 -28 27 0 54 -23 54 -46 0 -28 -37
-61 -61 -54 -19 6 -19 0 -19 -388 1 -353 2 -396 17 -401 9 -4 24 1 34 10 17
15 20 14 42 -10 20 -21 30 -25 56 -20 26 6 31 4 31 -14 0 -20 -27 -92 -34 -92
-3 0 -16 4 -30 10 -23 8 -25 12 -15 36 11 31 -5 60 -20 36 -4 -7 -21 -20 -36
-28 -23 -12 -30 -12 -37 -2 -12 19 -10 -1075 2 -1107 7 -17 7 -24 0 -20 -6 3
-10 -1 -10 -9 0 -12 9 -15 37 -13 21 1 39 -2 40 -8 2 -5 -5 -10 -15 -11 -67
-4 -62 4 -62 -89 l0 -85 340 0 340 0 6 25 c3 14 4 31 1 39 -3 8 3 25 13 38
l19 23 1 -31 c0 -17 7 -37 15 -44 21 -17 19 -26 -7 -36 -15 -5 14 -9 86 -11
60 -2 111 -1 114 1 3 3 -1 12 -8 21 -19 23 11 20 43 -5 24 -19 40 -20 402 -20
l376 0 -20 29 -21 29 42 7 c24 4 46 12 50 18 4 8 9 5 14 -6 4 -12 0 -23 -12
-32 -18 -13 -18 -14 -1 -15 9 0 17 -7 17 -17 0 -14 2 -14 20 2 11 10 20 29 20
42 0 23 14 31 25 13 3 -5 13 -6 21 -3 21 8 60 -15 73 -43 14 -31 47 -31 57 -2
5 13 7 27 6 32 -2 5 4 6 13 2 9 -3 25 -6 36 -6 10 0 19 -7 19 -15 0 -9 -6 -12
-15 -9 -9 4 -15 0 -15 -10 0 -14 49 -16 524 -16 394 0 525 3 528 12 5 14 158
12 172 -2 14 -14 556 -13 593 1 19 7 29 7 31 0 2 -6 19 -11 38 -11 25 0 38 6
50 25 9 14 23 25 30 25 12 0 11 -5 -2 -25 -16 -25 -16 -25 14 -25 20 0 35 7
41 19 12 21 62 36 54 15 -6 -17 32 -36 65 -31 l27 3 -23 10 c-19 8 -21 12 -10
20 22 17 100 44 109 38 5 -3 12 2 16 11 3 10 0 20 -7 25 -9 6 -10 12 0 30 11
20 10 25 -6 37 -10 7 -28 13 -40 13 -13 0 -25 4 -28 9 -3 5 -113 12 -243 15
-276 8 -368 15 -338 27 11 4 37 8 58 8 20 1 37 4 37 9 0 18 -64 34 -170 44
-63 6 -117 14 -118 19 -2 5 -12 14 -23 19 -15 8 -28 3 -64 -25 -25 -19 -56
-35 -68 -35 -85 -1 -115 -8 -154 -33 -48 -31 -53 -32 -53 -14 0 6 -5 19 -10
27 -8 13 -11 13 -22 -2 -7 -9 -23 -19 -36 -23 -21 -6 -22 -5 -11 14 19 30 4
36 -29 12 -25 -18 -47 -21 -135 -23 l-105 -3 5 -33 c4 -23 0 -38 -13 -53 -10
-11 -19 -30 -19 -42 0 -18 -7 -23 -35 -25 l-35 -3 0 48 c-1 26 -4 55 -8 64 -8
15 5 24 37 27 5 0 13 6 17 14 7 10 9 10 9 1 0 -7 7 -13 15 -13 8 0 15 7 15 16
0 13 -7 15 -35 10 -22 -5 -35 -3 -35 4 0 6 -11 15 -25 20 -14 5 -24 15 -23 22
3 13 -48 35 -58 26 -3 -4 1 -17 10 -29 11 -17 13 -26 4 -36 -19 -23 -154 -12
-144 12 2 7 -27 28 -75 51 -85 42 -90 51 -52 94 l23 24 67 -18 c38 -9 79 -28
93 -40 14 -13 33 -26 44 -30 15 -5 17 -2 12 18 -6 23 -5 23 102 30 59 4 135 7
169 7 58 -1 63 1 79 28 15 26 21 28 55 24 35 -5 39 -3 49 23 13 34 29 45 53
38 10 -3 25 0 34 8 9 7 39 13 67 14 61 1 117 21 154 57 25 24 35 26 117 28 50
0 109 5 133 11 35 9 42 14 42 35 0 13 -11 34 -25 47 -35 32 -81 38 -121 14
-21 -12 -41 -17 -57 -12 -14 3 -31 3 -37 -1 -6 -4 -50 -8 -98 -10 -63 -2 -93
1 -110 12 -13 8 -57 17 -98 19 -69 5 -77 8 -109 40 -59 58 -90 63 -148 20 -27
-20 -29 -20 -95 -2 -70 19 -110 50 -144 113 -11 23 -28 35 -57 44 -51 15 -84
2 -109 -41 -20 -35 -22 -36 -52 -10 -13 11 -27 20 -33 20 -5 0 -28 19 -52 43
-89 86 -109 97 -184 97 -26 0 -52 5 -58 11 -14 14 -24 -1 -28 -49 -2 -20 -9
-38 -16 -41 -17 -5 -79 -68 -79 -80 0 -5 -9 -13 -20 -16 -11 -4 -41 -24 -66
-46 -25 -21 -52 -39 -60 -39 -23 0 -16 -18 14 -34 37 -19 55 -41 92 -111 17
-33 49 -77 72 -98 45 -43 41 -57 -20 -57 -36 0 -92 -45 -92 -74 0 -8 -9 -20
-20 -26 -11 -6 -20 -17 -20 -24 0 -8 -7 -17 -16 -20 -9 -3 -14 -12 -11 -19 7
-21 70 -9 92 18 19 23 23 24 58 13 30 -9 46 -9 75 2 20 8 62 17 92 20 35 3 54
9 53 17 -3 14 61 35 82 27 15 -6 28 -44 14 -44 -5 0 -9 -6 -9 -14 0 -21 -76
-102 -110 -116 -18 -8 -42 -9 -62 -5 -89 20 -316 -1 -471 -45 -59 -16 -85 -19
-106 -12 -21 7 -30 6 -37 -5 -5 -8 -39 -18 -81 -24 -83 -11 -126 3 -137 45 -6
24 -17 32 -73 47 -104 28 -107 29 -124 10 -12 -13 -31 -17 -75 -17 l-59 1 -1
40 c-2 46 -18 92 -42 119 -10 11 -13 20 -7 23 28 9 79 41 82 50 2 6 -10 13
-26 16 -23 5 -32 13 -36 34 -3 15 -9 40 -14 54 -5 17 -4 35 4 50 13 23 20 88
17 140 -2 18 -14 33 -47 54 -25 15 -44 33 -42 39 7 21 34 17 65 -9 53 -44 82
-20 82 68 0 42 -36 137 -52 137 -6 0 -8 6 -5 13 8 21 -19 74 -47 92 -20 13
-26 26 -26 53 0 19 3 32 7 29 3 -4 12 -2 20 4 7 6 13 8 13 5 0 -4 8 -2 18 3
14 7 25 4 45 -13 15 -13 27 -31 27 -40 0 -9 7 -16 16 -16 11 0 14 6 9 22 -6
17 -4 20 9 15 21 -8 20 8 -1 44 -17 28 -17 29 12 60 29 30 29 31 11 45 -26 18
-36 17 -65 -5 -19 -15 -23 -24 -18 -49 6 -29 5 -30 -26 -25 -40 6 -43 9 -51
53 -7 43 1 55 67 99 26 18 55 44 64 58 17 25 16 26 -11 50 -25 21 -28 29 -22
65 4 22 2 66 -5 98 -10 52 -13 56 -34 52 -27 -5 -39 -38 -29 -86 5 -28 2 -36
-17 -49 -12 -9 -26 -14 -30 -11 -11 6 0 236 11 249 5 6 5 27 0 48 -5 22 -4 52
1 72 9 31 14 35 43 35 19 0 38 -6 44 -13 24 -29 49 -145 51 -236 1 -69 7 -103
21 -131 18 -34 38 -133 31 -155 -4 -16 32 -155 40 -155 5 0 9 6 10 13 0 6 5
-1 10 -18 5 -16 9 -75 10 -130 1 -116 6 -145 25 -145 8 0 23 15 34 32 16 26
19 43 15 78 -4 28 0 67 10 105 21 76 23 85 30 170 4 39 9 88 11 110 3 22 5 53
5 68 0 24 2 27 14 17 19 -16 19 -1 0 24 -8 11 -15 30 -15 43 0 29 -27 83 -40
83 -27 0 -50 41 -50 89 0 28 -4 52 -9 56 -5 3 -10 52 -9 108 0 57 -6 131 -12
165 -8 41 -10 87 -5 135 8 76 10 177 6 267 -2 30 2 98 8 150 6 52 14 125 18
162 12 132 22 54 19 -155 -2 -170 0 -226 14 -281 11 -48 14 -84 9 -115 -7 -43
-3 -159 7 -190 4 -11 7 -11 22 1 9 9 27 19 40 22 20 7 22 13 22 91 0 46 4 87
10 90 12 7 12 61 1 89 -5 14 -10 16 -15 8 -4 -7 -11 -12 -17 -12 -14 0 -11 23
8 50 10 14 18 36 19 50 1 14 2 27 3 28 0 2 15 -8 32 -22 17 -14 34 -26 39 -26
7 0 24 -108 25 -162 0 -15 9 -35 21 -46 11 -10 26 -44 33 -74 12 -49 12 -59
-3 -79 -9 -13 -16 -41 -16 -62 0 -21 -7 -52 -16 -68 -9 -18 -14 -49 -12 -77 3
-39 6 -47 23 -47 15 0 20 -6 19 -27 -2 -94 -5 -119 -14 -113 -6 4 -10 -6 -11
-22 -1 -29 -3 -43 -14 -105 -5 -25 -3 -43 5 -53 7 -8 14 -40 16 -71 3 -49 0
-57 -17 -61 -11 -3 -19 -14 -19 -27 0 -11 -10 -37 -23 -56 -20 -32 -22 -47
-22 -180 0 -80 3 -159 6 -176 3 -17 3 -65 0 -107 -6 -67 -4 -79 12 -96 19 -18
19 -20 -2 -75 -12 -34 -21 -80 -21 -114 0 -53 3 -60 29 -80 25 -18 34 -20 63
-11 57 18 108 22 108 7 0 -10 2 -10 9 1 5 8 16 11 26 8 9 -4 13 -11 10 -17
-12 -19 7 -32 19 -13 25 37 25 53 -4 107 -34 64 -40 129 -13 144 14 8 14 16 5
51 -8 35 -8 42 3 37 10 -3 13 4 13 25 -1 16 -4 29 -8 29 -3 0 -4 16 -2 35 2
19 8 35 14 35 5 0 6 9 3 20 -4 11 -2 20 4 20 6 0 10 3 10 8 -1 4 2 22 6 40 5
23 12 31 22 28 21 -8 63 23 63 48 0 30 11 66 20 66 4 0 4 -21 -1 -46 -11 -57
-7 -64 37 -64 31 0 34 3 34 28 0 15 9 55 21 87 12 33 23 71 26 85 8 45 10 149
4 213 -6 57 -8 62 -29 60 -14 -2 -22 3 -22 12 0 8 -4 15 -9 15 -13 0 -8 -34 7
-43 6 -4 12 -13 12 -18 0 -6 -5 -7 -10 -4 -6 4 -17 1 -25 -5 -11 -9 -15 -9
-16 -1 -2 20 -4 26 -10 36 -10 16 -3 76 13 119 12 29 13 47 6 68 -6 16 -7 41
-3 56 20 79 23 146 8 254 -8 62 -14 130 -14 150 2 49 -15 57 -34 16 l-15 -33
3 63 c2 42 8 67 18 73 11 7 10 9 -6 9 -34 1 -81 33 -80 55 0 14 6 19 20 18 11
-1 47 4 79 13 59 14 126 10 126 -8 0 -16 84 2 100 22 30 35 82 43 196 29 76
-9 111 -9 128 -1 14 6 51 14 84 18 55 6 60 5 59 -12 -1 -13 6 -20 21 -22 12
-2 30 -16 40 -30 9 -15 22 -31 29 -37 6 -5 13 -19 15 -30 2 -15 14 -21 50 -26
55 -8 68 -15 68 -35 0 -18 2 -18 50 7 34 18 58 21 140 21 55 0 116 -6 135 -12
63 -21 115 14 115 75 0 18 6 29 19 32 16 4 51 56 51 75 0 3 -32 17 -71 33 -95
37 -108 20 -23 -29 57 -33 64 -40 52 -52 -16 -16 -64 -20 -224 -16 -111 2
-112 2 -117 28 -6 33 18 55 77 73 37 11 46 18 46 36 0 13 -7 26 -16 29 -22 9
-32 -3 -14 -15 19 -13 -87 -1 -113 13 -10 5 -48 6 -87 2 -42 -4 -70 -3 -70 3
0 5 30 19 68 32 42 14 74 31 85 46 16 23 16 27 2 54 -8 16 -19 32 -25 36 -6 3
-6 15 0 29 17 46 -22 50 -45 5 -13 -24 -14 -34 -5 -45 17 -19 -12 -29 -48 -16
-15 5 -46 15 -69 21 -24 7 -43 15 -43 20 0 13 -79 33 -121 30 -21 -2 -41 0
-45 4 -4 4 4 7 17 7 29 1 65 25 50 35 -6 3 -14 0 -17 -8 -2 -7 -18 -14 -33
-14 l-29 0 21 18 22 18 -30 1 c-25 1 -27 3 -10 9 11 4 40 6 64 3 34 -4 47 -1
57 13 7 9 17 14 23 11 5 -3 26 4 47 16 32 19 38 20 48 7 16 -22 112 -39 163
-30 23 5 64 7 90 6 26 -1 63 2 81 7 27 8 31 12 21 24 -9 12 -7 14 15 14 15 0
48 11 74 25 53 28 100 32 108 10 9 -23 29 -18 44 10 10 20 11 28 2 37 -20 20
-14 35 18 47 17 5 30 16 30 24 0 12 59 37 89 37 27 0 9 -48 -35 -90 -25 -25
-52 -57 -60 -72 l-14 -27 58 -6 c73 -8 87 -13 40 -14 -31 -1 -38 -5 -38 -21 0
-11 4 -20 9 -20 5 0 12 -12 15 -26 6 -23 10 -25 44 -20 20 3 81 8 136 12 92 6
100 8 124 35 14 16 35 29 46 29 30 0 68 -29 62 -46 -3 -8 -1 -14 4 -14 4 0 22
-11 39 -25 16 -14 40 -28 52 -30 12 -3 33 -15 46 -27 14 -13 34 -23 46 -23 19
0 22 -5 20 -40 -3 -60 -14 -118 -26 -133 -5 -7 -11 -30 -12 -52 -2 -32 1 -40
15 -40 13 0 19 11 23 45 5 53 11 62 30 46 8 -6 19 -53 27 -115 12 -98 12 -106
-9 -169 -22 -64 -54 -117 -71 -117 -5 0 -21 -6 -37 -12 -15 -7 -50 -13 -78
-14 -342 -10 -375 -13 -397 -28 -30 -21 -47 -20 -74 5 l-23 21 5 -23 6 -24
-21 23 c-25 29 -95 44 -85 18 5 -13 -1 -16 -37 -16 -24 0 -61 5 -81 11 -21 5
-75 14 -120 18 -46 5 -107 15 -136 23 -48 14 -61 14 -144 -3 -50 -11 -104 -25
-119 -33 -23 -12 -40 -12 -104 -1 -64 11 -80 11 -103 -1 -41 -20 -97 -30 -88
-16 11 18 0 15 -44 -13 -22 -14 -40 -32 -40 -40 0 -21 -46 -59 -78 -65 -17 -3
-28 -13 -30 -25 -2 -11 -9 -24 -16 -30 -13 -11 -36 -69 -36 -91 0 -8 5 -14 10
-14 6 0 10 6 10 13 0 34 22 87 36 87 9 0 13 -5 10 -12 -3 -7 -9 -21 -12 -30
-4 -10 -10 -18 -14 -18 -4 0 -8 -10 -8 -22 0 -25 -31 -120 -42 -128 -30 -23
-39 -154 -13 -203 9 -18 16 -47 14 -66 -1 -18 6 -53 15 -77 13 -34 14 -47 5
-58 -13 -16 -15 -57 -8 -149 4 -48 9 -61 33 -80 15 -12 35 -25 43 -29 25 -10
79 -9 86 2 3 5 20 10 37 10 16 0 52 12 80 28 43 24 51 25 61 12 7 -9 26 -25
42 -37 26 -18 32 -19 43 -6 10 10 32 13 80 11 60 -3 68 -5 79 -28 18 -38 114
-57 178 -35 53 17 152 20 157 4 5 -14 75 -39 112 -39 16 0 41 11 58 25 31 26
53 32 63 15 3 -6 25 -10 49 -10 35 0 45 4 54 24 13 29 65 44 88 25 11 -9 14
-23 11 -46 -5 -31 -4 -33 23 -33 15 0 30 -7 33 -14 5 -12 13 -13 38 -6 17 5
34 11 36 14 6 6 11 36 12 70 l1 29 80 -6 c52 -3 94 -12 119 -25 l39 -20 33 35
34 35 -42 -7 c-49 -8 -83 0 -83 21 0 9 10 14 29 14 16 0 31 6 35 15 7 19 50
20 65 1 6 -8 37 -17 68 -21 32 -4 80 -16 108 -27 47 -19 57 -20 165 -9 115 12
170 6 170 -19 0 -5 7 -10 16 -10 9 0 23 -8 30 -17 12 -16 13 -14 8 13 l-6 31
77 15 c74 15 78 15 96 -3 11 -11 19 -27 19 -36 0 -10 3 -28 6 -41 5 -16 2 -22
-9 -22 -8 0 -17 6 -20 13 -3 8 -8 9 -15 2 -13 -13 6 -88 31 -127 16 -23 18
-39 12 -117 -5 -57 -13 -95 -21 -102 -16 -13 -19 -79 -4 -79 14 0 23 -65 16
-114 -7 -41 -37 -92 -48 -80 -3 2 -8 -23 -12 -57 -5 -41 -16 -75 -34 -101
l-26 -40 25 -19 c13 -10 20 -19 14 -19 -5 0 -4 -4 4 -9 12 -8 10 -16 -8 -52
-12 -23 -20 -50 -18 -60 3 -10 2 -18 -2 -17 -11 3 -69 -36 -80 -54 -10 -17 -6
-18 63 -18 77 0 143 19 153 45 3 8 11 15 19 15 20 0 17 -37 -3 -49 -13 -7 63
-10 250 -11 147 0 267 2 267 5 0 17 -99 45 -165 47 -102 3 -95 18 8 18 113 0
154 -8 160 -31 3 -11 10 -19 16 -19 8 0 11 54 11 173 -1 145 -3 169 -14 155
-8 -12 -27 -18 -50 -18 -22 0 -35 -4 -31 -10 3 -5 2 -10 -3 -10 -15 0 -22 53
-12 96 10 41 4 104 -10 104 -19 0 -50 -38 -56 -67 -6 -29 -4 -31 16 -26 16 4
21 3 16 -5 -4 -7 -14 -12 -22 -12 -8 0 -14 -8 -14 -17 0 -15 -1 -15 -12 -1 -7
9 -31 18 -53 20 -38 3 -40 1 -43 -27 -1 -16 -7 -39 -12 -50 -5 -11 -10 -27
-13 -35 -2 -8 -7 4 -11 28 -5 27 -3 59 5 87 12 39 17 45 41 45 25 0 28 4 28
33 -1 36 -22 70 -47 73 -9 2 -28 8 -40 15 -20 11 -23 18 -17 43 3 17 17 49 29
71 25 44 37 95 27 112 -4 5 -17 13 -28 17 -17 5 -23 2 -28 -16 -6 -23 -6 -23
-22 -3 -23 31 -28 65 -15 102 7 18 9 43 5 56 -4 12 -6 37 -5 55 2 21 -3 34
-12 38 -8 3 -18 19 -21 36 -7 35 -31 57 -63 58 -32 0 -29 15 4 18 40 3 50 18
28 42 -18 20 -18 21 5 45 31 33 90 51 118 36 17 -9 19 -18 15 -49 -4 -31 -2
-39 11 -39 19 0 21 13 4 20 -11 5 25 11 44 8 4 0 12 8 17 18 6 10 23 22 38 26
16 3 36 13 45 22 11 10 40 16 87 17 l71 1 0 173 c0 127 -3 172 -12 172 -9 0
-9 3 0 12 7 7 12 33 12 58 0 42 -5 52 -55 108 -31 33 -66 64 -78 68 -12 3 -30
13 -39 21 -25 22 -68 9 -68 -20 1 -32 34 -72 54 -64 11 5 16 1 16 -13 0 -24
-21 -70 -32 -70 -4 0 -8 -10 -8 -21 0 -17 -3 -19 -13 -10 -15 12 -27 5 -27
-17 0 -8 -15 -32 -32 -53 -18 -21 -43 -51 -54 -66 -12 -15 -47 -41 -77 -56
-49 -24 -68 -28 -154 -29 -94 -2 -232 21 -305 51 -27 10 -28 13 -30 93 -1 46
-1 93 0 106 1 34 -27 27 -43 -12 -10 -24 -22 -35 -45 -39 -26 -6 -30 -11 -31
-39 -1 -18 -1 -39 0 -45 1 -7 -5 -13 -13 -13 -8 0 -17 -8 -19 -17 -3 -11 -5
-5 -6 12 -1 21 -4 26 -12 18 -15 -15 -90 23 -97 49 -2 10 -8 18 -13 18 -5 0
-9 4 -9 8 0 5 25 16 56 26 33 10 54 22 51 29 -2 7 0 22 4 35 10 25 4 27 -31 7
-33 -19 -45 -19 -26 1 14 14 14 18 -6 45 -13 17 -23 47 -24 73 -3 43 -2 45 47
76 42 27 50 38 55 71 7 42 24 63 24 30 0 -13 7 -21 16 -21 12 0 15 6 10 23 -3
12 -6 28 -6 35 0 6 -6 12 -14 12 -8 0 -16 -6 -19 -12 -2 -7 -8 -10 -12 -6 -4
4 28 41 71 83 70 69 79 75 90 60 7 -9 17 -14 23 -10 6 3 11 -1 11 -10 0 -11
-5 -15 -14 -12 -8 3 -20 -1 -27 -9 -7 -8 -20 -12 -31 -8 -19 6 -48 -11 -48
-27 0 -5 6 -9 14 -9 7 0 19 -7 26 -15 16 -19 40 -19 40 0 0 8 4 15 9 15 5 0 9
-16 8 -36 -1 -37 20 -61 37 -44 15 15 26 12 26 -6 0 -9 -8 -23 -17 -30 -21
-15 -37 -18 -29 -5 3 5 -1 14 -8 20 -11 10 -16 8 -21 -8 -3 -11 -19 -22 -36
-26 -32 -7 -49 -31 -49 -67 1 -20 2 -21 13 -7 21 27 45 30 67 7 18 -19 21 -20
43 -5 35 23 82 25 106 3 30 -27 41 -12 38 54 -2 57 -8 72 -22 50 -3 -6 -13
-10 -21 -10 -12 0 -11 6 6 30 16 23 25 28 34 21 7 -6 16 -8 19 -4 4 3 7 1 7
-5 0 -6 10 -16 22 -23 18 -10 20 -9 14 6 -5 13 -2 16 10 11 8 -3 17 -6 20 -6
13 0 -13 -33 -32 -41 -28 -10 -30 -28 -9 -68 13 -26 13 -30 -3 -44 -17 -15
-93 -35 -167 -44 -43 -5 -116 -36 -154 -65 l-24 -18 46 0 c27 0 60 8 79 19 18
10 53 22 76 25 24 4 68 22 98 41 30 19 59 35 64 35 5 0 10 12 12 28 4 33 32
37 36 5 2 -16 18 -28 57 -44 30 -12 52 -26 49 -31 -3 -4 0 -8 5 -8 6 0 11 7
11 16 0 8 4 12 10 9 16 -10 12 4 -10 35 -16 23 -18 34 -10 54 8 23 7 26 -10
26 -13 0 -20 -7 -20 -20 0 -28 -50 -28 -57 0 -3 11 -9 17 -14 14 -5 -3 -9 -1
-9 5 0 5 9 13 20 16 11 3 20 11 20 16 0 5 8 9 18 9 14 0 15 2 2 10 -15 10 -13
11 25 14 25 1 34 43 11 52 -13 5 -12 10 9 26 14 11 25 25 25 33 0 14 43 26 60
15 7 -5 6 -15 -5 -36 -8 -16 -15 -34 -15 -41 0 -22 28 -2 40 28 10 24 18 29
47 29 l35 0 -46 -46 c-25 -25 -46 -52 -46 -60 0 -19 7 -18 49 8 19 13 45 28
56 33 11 6 21 21 23 33 2 15 9 22 20 20 11 -2 17 3 16 14 -2 16 1 16 23 -2 14
-11 30 -20 34 -20 19 0 8 42 -16 64 l-25 23 28 14 c16 8 29 16 30 19 9 50 35
52 31 3 -4 -37 27 -123 42 -123 5 0 16 -16 25 -35 16 -34 16 -38 -1 -75 -9
-21 -15 -44 -12 -52 3 -8 9 -1 18 17 19 43 39 64 55 58 12 -4 14 38 14 271 l0
276 -42 1 c-24 1 -56 0 -71 -1 -15 -1 -33 3 -40 8 -7 5 -24 12 -38 15 -23 6
-60 60 -48 71 13 13 70 12 88 -1 14 -9 21 -10 21 -3 0 7 9 23 20 37 11 14 20
21 20 16 0 -11 59 -11 78 0 9 6 12 68 12 253 0 134 -3 244 -7 245 -5 0 -18 2
-31 5 -13 2 -33 -2 -44 -10 -17 -12 -26 -12 -62 -1 -22 8 -67 21 -98 30 -68
19 -81 43 -54 99 9 19 14 41 11 49 -9 21 42 77 69 77 17 0 22 6 22 23 -1 17 5
23 27 25 19 2 27 -1 27 -12 0 -9 -4 -16 -10 -16 -10 0 -14 -42 -5 -52 3 -2 39
7 80 21 l75 26 0 163 c0 131 -3 166 -15 178 -8 8 -13 25 -11 37 3 12 5 26 5
30 1 5 6 5 11 2 6 -4 10 26 10 84 0 62 -4 91 -13 94 -9 4 -9 6 1 6 8 1 12 22
12 71 0 39 -2 70 -4 70 -3 0 -16 -4 -30 -10 -14 -5 -25 -6 -24 -2 5 13 -26 77
-45 94 -19 17 -19 18 7 28 15 5 28 10 29 10 2 0 11 -16 21 -35 21 -38 46 -47
46 -15 0 11 -6 20 -14 20 -23 0 -45 28 -39 50 3 13 14 20 29 20 17 0 24 6 24
20 0 14 -7 20 -22 20 -44 0 -66 12 -73 37 -3 14 -2 30 4 36 6 6 8 34 4 69 -6
63 -7 63 60 58 27 -2 27 -1 27 64 0 62 -2 66 -22 67 l-23 0 23 11 c21 11 22
15 22 160 l0 148 -478 0 c-466 0 -479 -1 -497 -20 -10 -11 -25 -20 -32 -20 -8
0 -13 -3 -11 -7 31 -65 26 -61 97 -58 87 4 83 4 76 15 -13 21 15 9 33 -15 13
-16 30 -25 48 -25 22 0 25 -3 16 -12 -9 -9 -8 -16 5 -30 13 -15 14 -23 5 -43
-10 -21 -19 -25 -52 -25 -27 0 -43 5 -46 15 -4 10 -20 15 -44 15 -21 0 -45 7
-54 15 -9 10 -34 15 -72 15 -49 0 -55 -2 -44 -15 7 -8 8 -15 3 -15 -12 0 -38
54 -47 98 -9 36 -21 42 -29 12 -4 -14 -11 -18 -24 -14 -13 4 -11 0 7 -15 14
-11 20 -21 15 -21 -6 0 -15 4 -21 10 -9 9 -79 12 -175 8 -28 -2 -53 3 -63 11
-20 17 -21 61 -1 87 8 10 15 22 15 27 0 4 -30 6 -67 6 -38 -1 -61 -3 -52 -6
16 -4 29 -43 29 -86 0 -17 -5 -19 -32 -13 -18 3 -36 13 -41 21 -4 8 -17 15
-27 15 -34 0 -25 38 13 54 l32 14 -62 1 c-61 1 -61 1 -68 -29 -5 -22 -10 -28
-18 -22 -10 8 -127 21 -204 22 -16 0 -21 4 -17 15 5 12 -5 15 -55 15 -46 0
-61 -3 -61 -14 0 -8 6 -17 13 -19 6 -3 -3 -6 -21 -6 -25 -1 -35 -6 -39 -21 -5
-17 -7 -18 -17 -6 -13 17 -91 33 -81 17 3 -6 14 -11 24 -11 10 0 24 -7 31 -15
7 -8 23 -15 37 -15 13 0 33 -5 44 -11 17 -9 21 -7 26 10 6 24 28 18 61 -15 13
-13 30 -24 38 -24 12 0 12 -4 4 -20 -9 -17 -8 -20 7 -20 23 0 49 -17 40 -26
-3 -4 -12 -2 -19 3 -17 13 -89 31 -168 42 -162 23 -210 34 -210 49 0 10 5 12
18 7 9 -4 40 -9 67 -12 l50 -4 -70 24 c-88 30 -169 49 -217 51 -23 0 -33 5
-27 11 5 5 9 13 9 17 0 4 -171 8 -380 8 -209 0 -380 -3 -380 -7 1 -14 24 -39
48 -52 24 -13 40 -8 61 22 7 10 19 16 26 13 7 -2 29 -1 49 4 29 6 38 5 45 -9
8 -12 12 -13 22 -4 9 9 18 8 38 -5 34 -21 70 -63 70 -82 0 -11 -4 -10 -15 5
-8 11 -19 19 -24 18 -5 -2 -7 6 -5 17 2 11 0 20 -4 20 -12 0 -32 -26 -25 -33
3 -3 -4 -3 -17 0 -15 4 -20 3 -15 -5 10 -17 -42 -27 -84 -15 -45 12 -59 7 -53
-16 3 -10 -6 -29 -19 -44 l-23 -26 -65 14 c-78 17 -117 19 -122 4 -6 -19 -34
1 -36 27 -2 30 -62 90 -85 86 -9 -2 -35 3 -59 12 -33 11 -56 12 -92 5 -27 -5
-52 -11 -54 -14 -3 -3 -16 4 -28 16 -14 13 -32 19 -50 17 -26 -3 -29 -7 -30
-38 0 -31 -3 -35 -25 -32 -64 8 -76 14 -102 55 -12 18 -24 26 -33 23 -8 -3
-17 1 -20 9 -4 9 -19 15 -36 15 -25 0 -28 -3 -23 -20 9 -27 -29 -27 -52 0 -17
19 -30 20 -351 20 -284 0 -334 -3 -338 -15 -7 -18 -25 -20 -21 -2 3 19 -249
23 -260 3z m2312 -26 c-2 -3 9 -6 25 -5 30 2 40 -13 40 -61 0 -30 -63 -76 -97
-72 -38 4 -42 28 -5 28 25 0 30 4 30 26 0 17 -7 28 -18 31 -20 5 -33 60 -16
66 16 5 47 -4 41 -13z m1928 2 c-2 -10 -15 -32 -28 -48 -23 -29 -23 -29 -44
-10 -12 11 -21 22 -21 27 0 7 78 49 92 49 3 0 4 -8 1 -18z m-3440 -23 c5 -17
8 -18 24 -8 15 9 26 8 52 -5 17 -9 41 -14 51 -11 12 4 20 2 20 -4 0 -6 -6 -11
-14 -11 -25 0 -36 -23 -20 -44 8 -11 14 -26 14 -33 0 -21 -45 -45 -74 -37 -29
7 -26 24 5 24 24 0 24 9 2 25 -14 11 -15 15 -4 29 7 8 11 21 8 28 -4 9 -6 8
-6 -3 -1 -12 -10 -16 -38 -14 -53 3 -55 4 -48 15 3 6 1 10 -4 10 -6 0 -11 14
-11 30 0 23 5 30 19 30 10 0 21 -9 24 -21z m-558 -9 c3 -5 1 -10 -4 -10 -6 0
-11 5 -11 10 0 6 2 10 4 10 3 0 8 -4 11 -10z m842 4 c-3 -3 -12 -4 -19 -1 -8
3 -5 6 6 6 11 1 17 -2 13 -5z m-402 -59 c6 -5 27 -18 47 -29 49 -25 54 -43 21
-78 -21 -22 -36 -28 -70 -28 -28 0 -42 4 -40 12 1 7 -26 16 -73 24 -41 7 -84
16 -96 18 -15 4 -24 -1 -32 -19 -9 -19 -19 -25 -43 -25 -20 0 -29 -4 -26 -12
2 -7 14 -12 26 -10 22 3 51 -13 51 -29 0 -13 -27 -11 -42 4 -7 6 -20 12 -28
12 -10 0 -17 14 -21 43 -6 47 -4 52 22 52 18 0 38 16 62 51 8 11 30 21 53 24
21 2 64 8 94 13 53 8 70 4 95 -23z m390 15 c3 -6 -4 -10 -17 -10 -18 0 -20 2
-8 10 19 12 18 12 25 0z m300 0 c8 -13 -5 -13 -25 0 -13 8 -13 10 2 10 9 0 20
-4 23 -10z m3515 -21 c0 -11 13 -32 29 -46 16 -14 27 -32 24 -40 -4 -11 -8
-10 -18 3 -6 9 -23 18 -37 20 -29 3 -78 41 -78 60 0 11 16 16 68 23 6 0 12 -8
12 -20z m-3590 -10 c0 -11 -4 -17 -10 -14 -5 3 -10 13 -10 21 0 8 5 14 10 14
6 0 10 -9 10 -21z m-335 1 c3 -5 -1 -10 -10 -10 -9 0 -13 5 -10 10 3 6 8 10
10 10 2 0 7 -4 10 -10z m501 -11 c3 -5 -4 -9 -14 -9 -11 0 -22 6 -25 14 -4 10
0 12 14 9 11 -3 22 -9 25 -14z m94 1 c0 -25 -24 -36 -53 -23 -21 10 -21 10 8
26 39 21 45 21 45 -3z m1649 11 c14 -4 26 -12 29 -19 6 -19 -59 -15 -75 6 -8
9 -12 11 -8 5 7 -15 -30 -18 -39 -4 -13 20 39 27 93 12z m-2899 -11 c0 -5 -7
-10 -16 -10 -8 0 -12 5 -9 10 3 6 10 10 16 10 5 0 9 -4 9 -10z m850 -31 c0
-29 -26 -34 -66 -13 -43 24 -44 34 0 27 20 -3 36 -1 40 6 10 16 26 4 26 -20z
m2170 11 c0 -5 -5 -10 -11 -10 -5 0 -7 5 -4 10 3 6 8 10 11 10 2 0 4 -4 4 -10z
m913 -92 c-2 -5 -13 -8 -24 -8 -10 0 -19 3 -19 8 0 4 11 7 24 7 13 0 22 -3 19
-7z m-113 -6 c0 -11 -39 -12 -45 -1 -4 5 5 9 19 9 14 0 26 -4 26 -8z m-1495
-20 c6 -4 15 -20 20 -36 12 -34 51 -50 104 -40 19 3 86 9 149 14 62 5 120 14
127 20 16 14 35 5 35 -16 0 -10 12 -14 43 -14 53 0 88 10 81 21 -3 5 -1 9 4 9
6 0 12 -6 15 -14 3 -7 25 -15 50 -18 59 -7 123 -37 138 -66 16 -29 53 -26 57
6 2 12 8 22 13 22 6 0 17 7 25 15 25 25 54 18 67 -15 9 -23 17 -30 37 -29 14
0 19 3 13 6 -20 7 -15 23 6 23 10 0 47 -9 82 -21 52 -17 94 -22 224 -24 88 -2
180 1 204 7 45 9 45 9 93 -39 26 -26 48 -54 48 -60 0 -19 31 -16 54 6 19 17
26 18 68 9 26 -6 50 -18 54 -27 9 -20 21 -126 29 -259 l6 -102 -31 -26 c-33
-28 -43 -84 -15 -84 8 0 15 -7 15 -15 0 -18 -46 -21 -53 -2 -3 8 -16 1 -38
-19 -19 -17 -46 -34 -61 -38 -15 -3 -39 -18 -54 -31 -15 -14 -33 -24 -39 -21
-7 2 -43 -7 -81 -21 -38 -14 -79 -25 -91 -25 -27 0 -30 -13 -7 -26 9 -5 14
-14 10 -20 -10 -17 -67 4 -98 36 -15 15 -34 33 -43 40 -8 7 -15 27 -15 45 l-1
32 -38 -41 c-46 -48 -64 -58 -108 -55 -18 2 -33 -2 -33 -7 0 -13 43 -24 50
-12 3 5 12 5 19 1 17 -11 5 -17 -49 -25 -42 -7 -60 -13 -132 -47 -24 -10 -33
-10 -63 7 -20 10 -45 28 -56 40 l-20 21 51 22 c50 22 60 37 38 59 -16 16 -38
15 -38 -2 0 -8 -21 -33 -47 -55 -74 -63 -115 -53 -169 38 -19 32 -58 51 -105
51 -15 0 -31 5 -35 11 -5 8 -36 10 -100 6 -52 -3 -94 -2 -94 2 0 3 -20 8 -43
9 -33 1 -52 -5 -77 -23 -30 -22 -31 -25 -12 -25 12 0 22 4 22 9 0 5 7 11 15
15 20 7 19 -18 -1 -39 -10 -9 -25 -14 -35 -12 -11 3 -21 1 -24 -3 -3 -5 -26
-12 -51 -16 -37 -5 -47 -3 -58 11 -8 12 -26 18 -47 18 -19 0 -38 3 -44 7 -5 5
-39 18 -75 30 -36 12 -69 26 -75 31 -21 20 -178 9 -299 -21 -66 -17 -130 -30
-143 -30 -13 0 -31 -4 -41 -9 -9 -5 -25 -12 -35 -15 -16 -5 -17 -18 -16 -117
1 -61 -2 -114 -7 -118 -5 -3 -15 -18 -21 -33 -28 -64 -49 -14 -40 96 3 40 2
77 -1 83 -5 6 -23 3 -49 -9 -42 -18 -43 -20 -44 -66 -3 -156 -16 -239 -44
-288 -35 -60 -34 -117 5 -177 17 -26 30 -50 30 -53 0 -3 -14 -10 -30 -16 -24
-8 -29 -15 -25 -29 4 -11 2 -19 -6 -19 -18 0 -4 -78 20 -111 22 -29 28 -83 11
-94 -5 -3 -6 -13 -3 -22 5 -12 3 -14 -7 -8 -8 5 -11 3 -8 -6 3 -8 11 -14 19
-14 8 0 24 -10 37 -23 18 -18 20 -26 12 -42 -6 -11 -20 -20 -31 -20 -11 0 -43
-7 -70 -16 -35 -12 -53 -14 -61 -6 -13 13 -2 32 18 32 8 0 14 5 14 11 0 5 -5
7 -11 3 -6 -3 -15 0 -20 7 -6 10 -9 11 -9 2 0 -7 -8 -13 -18 -13 -11 0 -27 -9
-37 -20 -10 -11 -21 -18 -25 -15 -4 2 -5 -7 -2 -21 2 -14 -2 -39 -11 -57 -45
-93 -49 -106 -34 -127 17 -24 10 -64 -16 -100 -18 -24 -18 -25 -32 -6 -8 11
-15 36 -15 57 0 21 -8 47 -19 60 -21 28 -27 56 -17 81 4 9 3 41 -3 71 -13 70
1 112 42 127 26 9 28 13 22 42 -4 18 -11 35 -16 36 -5 2 -9 8 -9 14 0 6 -11
26 -24 43 -38 49 -40 125 -5 125 20 0 21 3 14 48 -4 26 -8 75 -9 109 0 34 -4
65 -8 69 -4 4 4 20 17 36 31 37 31 46 0 92 -14 21 -22 42 -19 48 12 19 5 78
-12 106 -9 15 -30 38 -46 51 -26 21 -31 22 -45 9 -13 -14 -17 -13 -39 9 -13
13 -24 30 -24 38 0 8 -4 15 -10 15 -5 0 -10 -13 -10 -29 0 -34 -17 -50 -26
-26 -4 10 -13 13 -25 10 -11 -4 -39 5 -68 20 -40 22 -52 25 -70 16 -19 -10
-22 -9 -31 14 -6 15 -10 42 -10 61 0 31 3 34 30 34 23 0 31 5 36 25 3 14 15
30 25 36 20 10 26 39 9 39 -16 0 -12 22 7 36 18 13 83 20 70 8 -3 -4 0 -18 8
-33 9 -18 10 -32 4 -44 -15 -26 14 -71 53 -83 32 -10 79 -4 123 16 11 5 27 10
35 13 9 2 -4 14 -33 31 -26 15 -48 29 -48 29 -1 1 -4 104 -8 229 -4 125 -10
230 -13 233 -10 10 -71 21 -91 17 -15 -3 -17 -10 -12 -30 5 -19 1 -30 -14 -42
-19 -14 -20 -19 -9 -47 10 -26 10 -35 0 -45 -10 -10 -14 -10 -21 1 -6 9 -18
11 -40 6 -29 -6 -32 -4 -46 28 -8 19 -26 49 -41 66 -31 37 -27 71 11 91 31 17
31 21 0 58 -27 32 -45 73 -45 103 0 13 7 19 23 19 13 0 28 5 35 12 8 8 15 8
25 0 8 -7 18 -8 22 -4 5 4 1 -6 -9 -21 -20 -32 -16 -59 14 -97 15 -19 20 -21
20 -9 0 9 -7 20 -16 23 -8 3 -13 10 -10 15 8 12 76 2 103 -15 34 -22 56 -17
98 20 34 31 47 35 113 42 49 4 81 3 95 -5 12 -6 45 -10 72 -7 28 2 67 4 88 5
26 1 37 6 37 16 0 8 9 15 21 15 11 0 35 11 52 24 54 41 112 55 242 57 66 1
139 -2 163 -6 28 -5 47 -3 57 5 20 17 20 -5 0 -53 -21 -51 -19 -55 14 -22 29
27 31 27 63 13 18 -9 50 -19 70 -22 32 -6 36 -9 28 -24 -19 -34 -49 -137 -41
-145 8 -8 67 74 102 143 13 25 29 49 37 53 7 5 28 22 47 38 29 26 100 68 115
68 3 1 10 -3 15 -7z m-2435 -181 c0 -13 97 -125 175 -202 15 -16 15 -18 -7
-33 -33 -24 -64 -20 -85 11 -23 33 -99 110 -129 130 -45 29 -22 128 27 116 10
-3 19 -13 19 -22z m4510 -21 c5 0 14 -9 20 -20 9 -17 7 -26 -8 -47 -18 -25
-19 -29 -4 -51 15 -23 15 -25 -4 -39 -19 -15 -19 -15 2 -11 31 8 48 -24 23
-45 -17 -15 -19 -15 -33 4 -8 12 -15 16 -18 9 -2 -6 -10 -9 -18 -5 -18 6 -23
57 -7 67 9 5 9 10 0 19 -8 8 -16 8 -33 -1 -31 -17 -35 -6 -5 14 29 19 25 36
-7 36 -19 0 -17 5 18 40 21 22 45 38 52 35 8 -3 18 -5 22 -5z m230 -174 c0 -3
-4 -8 -10 -11 -5 -3 -10 -1 -10 4 0 6 5 11 10 11 6 0 10 -2 10 -4z m-295 -108
c-17 -12 -27 9 -20 43 l8 33 11 -34 c8 -24 8 -37 1 -42z m-3917 8 c1 -14 13
-60 28 -103 22 -66 25 -90 21 -156 -6 -96 -18 -113 -46 -66 -12 19 -21 39 -21
45 0 6 -9 23 -21 38 -11 14 -17 30 -14 36 3 5 1 10 -5 10 -8 0 -10 9 -5 28 17
69 22 127 12 150 -9 18 -8 25 4 33 25 16 45 10 47 -15z m-591 -2 c-3 -3 -12
-4 -19 -1 -8 3 -5 6 6 6 11 1 17 -2 13 -5z m-79 -23 c-4 -18 -47 -26 -86 -16
-42 10 -2 32 61 32 20 0 27 -5 25 -16z m4662 -34 c0 -7 -4 -7 -12 1 -8 8 -17
8 -32 0 -21 -11 -21 -11 -2 11 15 16 22 18 33 10 7 -6 13 -16 13 -22z m-4070
-96 c-1 -13 -4 -12 -15 3 -8 11 -15 27 -15 35 1 13 4 12 15 -3 8 -11 15 -27
15 -35z m-412 -50 c11 -7 11 -15 -3 -47 -9 -21 -13 -49 -10 -61 3 -13 3 -23 1
-23 -2 0 -12 -3 -22 -7 -12 -4 -15 -3 -10 6 6 8 1 10 -16 6 -64 -16 -76 88
-15 117 38 18 57 21 75 9z m112 -62 c0 -11 -4 -17 -10 -14 -5 3 -10 13 -10 21
0 8 5 14 10 14 6 0 10 -9 10 -21z m4597 -11 c-3 -8 -6 -5 -6 6 -1 11 2 17 5
13 3 -3 4 -12 1 -19z m-4252 -78 c3 -5 16 -10 29 -10 l22 0 -2 -237 c-2 -131
-7 -258 -12 -283 -5 -25 -10 -36 -11 -24 0 11 -10 29 -20 38 -13 12 -22 38
-26 76 -7 63 4 100 32 100 9 0 13 3 10 7 -4 3 -2 12 4 19 5 7 13 43 16 81 4
55 2 77 -14 113 -11 25 -25 57 -31 73 -7 15 -16 27 -21 27 -6 0 -8 7 -5 15 7
17 20 20 29 5z m-315 -35 c-7 -8 -18 -15 -25 -15 -7 0 -15 7 -19 15 -4 11 2
15 26 15 26 0 29 -2 18 -15z m-430 -82 c0 -10 7 -27 15 -37 8 -11 15 -37 15
-59 0 -34 -3 -38 -22 -36 -13 2 -33 -3 -45 -9 -22 -12 -23 -11 -23 27 0 22 5
43 10 46 6 3 10 24 10 46 0 32 3 39 20 39 12 0 20 -7 20 -17z m4554 -62 c-15
-15 -16 -14 -10 9 3 14 6 32 6 40 1 8 6 4 11 -9 7 -19 6 -28 -7 -40z m-279
-110 c-3 -6 -11 -8 -17 -5 -6 4 -5 9 3 15 16 10 23 4 14 -10z m-4277 -29 c6
-18 -15 -14 -22 4 -4 10 -1 14 6 12 6 -2 14 -10 16 -16z m2836 -47 c4 -14 2
-33 -3 -43 -8 -15 -12 -12 -25 18 -10 24 -11 39 -4 47 14 17 24 9 32 -22z
m410 14 c14 -21 14 -21 27 -1 9 14 17 17 28 12 23 -12 154 -50 194 -57 24 -4
38 -13 46 -30 15 -33 15 -32 -24 -49 -39 -16 -41 -22 -23 -71 7 -20 17 -32 25
-29 7 3 13 2 13 -3 0 -5 3 -22 6 -39 6 -28 4 -30 -31 -34 -20 -2 -38 0 -41 4
-11 17 -114 8 -164 -14 -27 -12 -50 -26 -50 -30 0 -5 4 -6 10 -3 5 3 7 0 4 -9
-3 -8 -12 -12 -20 -9 -9 3 -14 -1 -14 -11 0 -9 6 -19 13 -22 8 -3 14 -12 14
-20 0 -8 -6 -13 -14 -10 -7 3 -13 -1 -13 -11 0 -12 -3 -13 -14 -4 -10 8 -16 9
-21 1 -17 -27 -75 3 -75 38 1 15 2 15 11 0 12 -22 31 -24 23 -3 -4 8 -1 15 5
15 6 0 11 8 11 19 0 13 -7 19 -25 19 -14 0 -25 -4 -25 -8 0 -4 -10 -10 -21
-13 -17 -4 -19 -3 -10 6 6 6 11 24 11 40 0 42 -34 33 -38 -11 -4 -38 -15 -40
-47 -7 -28 27 -34 61 -10 51 8 -3 22 -9 30 -12 24 -10 17 12 -7 24 -38 18 -76
23 -84 11 -9 -16 -38 47 -30 66 3 10 13 14 23 11 10 -3 38 -8 63 -11 40 -6 48
-4 69 19 14 14 31 26 38 26 8 0 12 4 8 9 -11 19 13 91 45 131 35 45 61 51 84
19z m-734 -9 c0 -5 -2 -10 -4 -10 -3 0 -8 5 -11 10 -3 6 -1 10 4 10 6 0 11 -4
11 -10z m1937 -7 c4 -10 13 -24 20 -31 7 -8 10 -19 6 -25 -3 -7 3 -4 15 7 21
18 21 18 34 -8 15 -33 -3 -50 -42 -40 -52 14 -181 2 -207 -18 -7 -5 -17 -7
-23 -3 -5 3 -10 2 -10 -3 0 -5 15 -13 33 -17 l32 -7 -26 -8 c-15 -4 -38 -5
-53 -3 -22 5 -26 11 -26 39 0 26 4 33 18 32 33 -4 107 15 131 33 13 11 32 17
42 14 19 -6 40 21 32 43 -7 19 17 14 24 -5z m-3754 -64 c6 -52 -6 -95 -24 -84
-10 7 -12 67 -3 114 9 43 20 31 27 -30z m1555 7 c6 -13 8 -33 5 -45 -4 -14 -1
-21 10 -21 14 0 27 -20 27 -40 0 -4 -13 -13 -30 -19 -16 -5 -30 -17 -30 -25 0
-9 -6 -16 -14 -16 -19 0 -56 52 -56 78 0 11 -6 25 -14 32 -8 6 -13 17 -10 25
3 7 1 16 -5 20 -6 3 -11 13 -11 21 0 10 14 14 58 14 52 0 60 -3 70 -24z m2082
14 c0 -5 -19 -10 -42 -9 -37 1 -39 2 -18 9 36 12 60 12 60 0z m-4307 -54 c30
-38 37 -63 9 -31 -9 11 -29 28 -44 38 -16 9 -28 24 -28 33 0 22 31 3 63 -40z
m1307 25 c0 -6 -4 -13 -10 -16 -5 -3 -10 1 -10 9 0 9 5 16 10 16 6 0 10 -4 10
-9z m-130 -32 c0 -5 -4 -9 -10 -9 -5 0 -10 7 -10 16 0 8 5 12 10 9 6 -3 10
-10 10 -16z m64 2 c3 -5 -1 -12 -10 -15 -20 -8 -29 -1 -19 13 8 13 22 14 29 2z
m3462 -12 c6 -10 -27 -12 -51 -3 -12 5 -13 9 -5 14 14 9 48 2 56 -11z m-793
-9 c12 -12 33 -23 47 -27 14 -3 30 -11 35 -18 20 -25 71 -45 84 -32 8 8 11 4
11 -17 0 -18 10 -38 26 -53 l26 -24 -3 -162 c-2 -106 -8 -178 -17 -209 -16
-50 -19 -53 -41 -39 -12 8 -11 19 3 72 13 49 15 71 7 92 -12 31 -31 36 -31 8
0 -10 -8 -36 -17 -57 -18 -42 -26 -139 -12 -164 7 -13 9 -13 14 2 9 23 19 16
44 -32 27 -52 27 -53 -6 -46 -16 3 -50 6 -78 7 -59 3 -68 6 -58 22 11 17 10
81 -1 89 -5 3 -9 24 -8 46 2 37 -3 44 -61 95 -56 49 -69 56 -134 67 -44 8 -73
18 -73 25 0 7 -6 18 -14 24 -11 9 -19 5 -38 -19 -22 -28 -27 -30 -67 -24 -39
6 -42 8 -36 34 5 24 1 29 -35 45 -59 27 -66 40 -22 42 62 3 96 10 99 19 2 5
-13 10 -32 10 -76 3 -85 4 -85 13 0 5 11 8 25 5 14 -2 25 0 25 5 0 5 14 12 30
16 25 5 29 10 20 20 -6 8 -10 31 -8 52 3 35 6 38 36 41 36 4 38 8 17 36 -19
26 -19 32 3 32 9 1 31 5 47 9 29 8 30 8 13 -12 -25 -28 -22 -38 10 -39 77 -3
79 -4 92 -34 11 -26 17 -29 44 -25 17 2 37 4 44 4 6 1 12 11 12 24 0 12 9 33
19 46 10 14 17 31 14 38 -7 19 5 16 30 -7z m702 10 c3 -5 -3 -10 -14 -10 -11
0 -23 5 -26 10 -3 6 3 10 14 10 11 0 23 -4 26 -10z m-1055 -10 c0 -5 -2 -10
-4 -10 -3 0 -8 5 -11 10 -3 6 -1 10 4 10 6 0 11 -4 11 -10z m-3580 -26 c0 -8
-4 -12 -10 -9 -5 3 -10 1 -10 -4 0 -6 -5 -11 -11 -11 -5 0 -7 5 -3 12 4 6 3 8
-4 5 -5 -4 -18 -4 -29 0 -18 8 -14 9 60 22 4 0 7 -6 7 -15z m1225 -34 c3 -5 2
-10 -4 -10 -5 0 -13 5 -16 10 -3 6 -2 10 4 10 5 0 13 -4 16 -10z m-1203 -45
c7 -24 13 -33 15 -23 3 11 10 15 20 11 9 -4 22 1 30 13 13 17 14 14 12 -33 -2
-29 -3 -53 -4 -53 -1 0 -13 9 -26 21 -13 11 -25 16 -27 10 -6 -17 -20 -13 -27
8 -3 11 -17 36 -30 55 l-24 36 25 -2 c19 -2 27 -11 36 -43z m1907 26 c8 -5 16
-40 21 -90 5 -44 11 -85 15 -91 3 -5 0 -7 -8 -5 -37 15 -89 195 -56 195 8 0
20 -4 28 -9z m2491 -11 c0 -5 -4 -10 -10 -10 -5 0 -10 5 -10 10 0 6 5 10 10
10 6 0 10 -4 10 -10z m-3198 -26 c-6 -30 -24 -41 -62 -35 l-35 6 40 28 c44 30
62 30 57 1z m-423 -119 c0 -86 -3 -104 -11 -85 -20 48 -17 241 3 209 5 -8 8
-63 8 -124z m1367 96 c-3 -5 1 -14 9 -21 18 -15 20 -40 4 -40 -8 0 -8 -5 1
-15 10 -12 16 -13 26 -4 8 6 14 8 15 3 0 -5 2 -18 4 -29 5 -26 -4 -57 -15 -50
-4 3 -8 -11 -8 -31 0 -20 -5 -41 -11 -47 -6 -6 -11 -7 -11 -3 0 5 -6 3 -14 -3
-12 -10 -17 -8 -26 9 -12 23 -30 206 -22 228 2 6 15 12 29 12 13 0 22 -4 19
-9z m-1049 -7 c-3 -3 -12 -4 -19 -1 -8 3 -5 6 6 6 11 1 17 -2 13 -5z m-85 -41
c10 -9 18 -22 18 -30 0 -18 20 -16 42 4 15 13 23 15 36 7 18 -11 30 -63 15
-65 -65 -6 -68 -9 -68 -52 0 -30 -2 -32 -35 -32 -35 0 -35 0 -38 50 -1 28 -5
69 -8 93 -7 46 5 55 38 25z m1828 -40 c0 -13 -3 -13 -15 -3 -8 7 -15 16 -15
21 0 5 7 6 15 3 8 -4 15 -13 15 -21z m-100 2 c0 -8 5 -15 10 -15 6 0 10 -9 10
-19 0 -11 9 -36 21 -55 17 -30 18 -36 6 -36 -26 0 -69 19 -63 29 3 4 -1 17 -9
27 -18 24 -19 50 -2 69 16 19 27 19 27 0z m-1485 -35 c3 -5 1 -10 -4 -10 -6 0
-11 5 -11 10 0 6 2 10 4 10 3 0 8 -4 11 -10z m1650 -18 c6 -9 21 -27 35 -40
l25 -25 -30 7 c-16 4 -42 10 -58 13 -34 7 -41 17 -33 49 5 20 11 24 29 19 12
-4 27 -14 32 -23z m1762 -60 c-5 -6 -7 -30 -3 -52 4 -25 2 -40 -4 -40 -7 0 -8
-13 -4 -35 l6 -35 -46 4 c-60 4 -65 11 -33 37 15 11 27 28 27 38 0 9 6 23 12
29 8 8 9 15 3 20 -6 4 -11 22 -13 40 -2 23 1 32 12 32 8 0 21 10 28 23 12 21
13 21 18 -13 3 -19 2 -41 -3 -48z m292 21 c1 -1 0 -6 -3 -12 -10 -16 -36 -1
-36 21 0 18 2 19 18 7 9 -7 19 -14 21 -16z m-3779 -28 c0 -27 -6 -30 -29 -16
-17 11 -7 41 14 41 9 0 15 -9 15 -25z m826 -13 c-3 -10 -7 -57 -8 -105 -1 -70
-5 -87 -16 -85 -11 2 -15 24 -16 93 -1 50 2 96 7 103 15 19 39 15 33 -6z
m-767 -14 c0 -13 -4 -32 -8 -42 -6 -17 -9 -15 -21 13 -11 28 -11 34 1 42 22
14 29 11 28 -13z m1051 -4 c0 -8 -9 -14 -20 -14 -22 0 -26 10 -8 28 13 13 28
7 28 -14z m1203 9 c-7 -2 -19 -2 -25 0 -7 3 -2 5 12 5 14 0 19 -2 13 -5z
m-528 -33 c-3 -5 -12 -10 -18 -10 -7 0 -6 4 3 10 19 12 23 12 15 0z m1770 -54
c9 4 14 -7 17 -34 2 -30 0 -39 -11 -37 -8 1 -15 8 -17 16 -1 8 -5 28 -8 44 -3
17 -4 25 0 18 3 -7 11 -10 19 -7z m-2214 -36 c-13 -11 -33 -20 -45 -19 -15 0
-11 5 19 19 51 24 55 24 26 0z m-2141 -20 c0 -18 24 -26 61 -22 4 1 10 -11 14
-25 5 -21 1 -31 -17 -45 -31 -24 -45 -23 -78 9 -22 20 -26 30 -18 40 7 9 7 17
-1 27 -10 11 -8 17 6 25 26 15 33 13 33 -9z m785 10 c3 -6 -1 -7 -9 -4 -18 7
-21 14 -7 14 6 0 13 -4 16 -10z m-845 -25 c7 -9 8 -15 2 -15 -5 0 -12 7 -16
15 -3 8 -4 15 -2 15 2 0 9 -7 16 -15z m4140 -46 c0 -11 7 -22 15 -25 24 -9 18
-26 -22 -61 -37 -33 -68 -44 -60 -20 2 6 0 24 -4 40 -4 15 -4 27 0 27 4 0 14
12 22 28 24 46 49 52 49 11z m274 -12 c-3 -15 -10 -24 -15 -21 -11 6 -12 48
-2 58 13 12 24 -11 17 -37z m162 6 c-10 -10 -19 5 -10 18 6 11 8 11 12 0 2 -7
1 -15 -2 -18z m-3988 -11 c21 -27 18 -154 -5 -189 -28 -43 -80 -20 -67 31 3
15 -1 48 -10 77 -16 48 -16 51 5 80 23 32 52 33 77 1z m367 18 c3 -5 2 -10 -4
-10 -5 0 -13 5 -16 10 -3 6 -2 10 4 10 5 0 13 -4 16 -10z m3408 -10 c3 -11 1
-20 -4 -20 -5 0 -9 9 -9 20 0 11 2 20 4 20 2 0 6 -9 9 -20z m183 1 c0 -11 -13
-33 -28 -50 -16 -17 -28 -40 -28 -51 0 -21 -16 -28 -22 -9 -3 9 -10 9 -26 0
-26 -14 -27 -12 -7 25 8 16 15 40 15 55 0 35 18 49 61 49 29 0 36 -4 35 -19z
m20 -38 c-10 -10 -19 5 -10 18 6 11 8 11 12 0 2 -7 1 -15 -2 -18z m-2761 -3
c-3 -5 -15 -10 -26 -10 -11 0 -17 5 -14 10 3 6 15 10 26 10 11 0 17 -4 14 -10z
m2600 -19 c-3 -6 -11 -8 -17 -5 -6 4 -5 9 3 15 16 10 23 4 14 -10z m-3379 -26
c0 -21 -8 -38 -30 -57 -38 -34 -44 -34 -57 -4 -11 24 -6 35 40 83 22 23 46 12
47 -22z m3298 23 c-6 -10 -4 -10 7 0 24 22 36 14 33 -24 -3 -40 -14 -60 -14
-26 0 15 -5 20 -15 16 -8 -4 -15 -1 -15 6 0 7 -7 10 -15 6 -17 -6 -18 -4 -9
18 3 9 13 16 21 16 8 0 11 -5 7 -12z m-3874 -22 c0 -3 -4 -8 -10 -11 -5 -3
-10 -1 -10 4 0 6 5 11 10 11 6 0 10 -2 10 -4z m1400 -6 c-20 -13 -33 -13 -25
0 3 6 14 10 23 10 15 0 15 -2 2 -10z m-986 -25 c3 -8 1 -15 -4 -15 -6 0 -10 7
-10 15 0 8 2 15 4 15 2 0 6 -7 10 -15z m3546 11 c0 -3 -4 -8 -10 -11 -5 -3
-10 -1 -10 4 0 6 5 11 10 11 6 0 10 -2 10 -4z m-4220 -16 c0 -5 -2 -10 -4 -10
-3 0 -8 5 -11 10 -3 6 -1 10 4 10 6 0 11 -4 11 -10z m3944 -6 c20 -8 11 -24
-15 -24 -19 0 -25 11 -12 23 8 8 8 8 27 1z m255 -28 c9 -11 8 -15 -5 -20 -21
-8 -34 1 -27 19 7 19 17 19 32 1z m-3509 -26 c0 -11 -4 -20 -10 -20 -5 0 -10
9 -10 20 0 11 5 20 10 20 6 0 10 -9 10 -20z m3124 -15 c-25 -19 -44 -19 -44
-1 0 8 12 16 28 18 36 5 40 1 16 -17z m-3564 -41 c0 -8 -4 -12 -10 -9 -5 3
-10 10 -10 16 0 5 5 9 10 9 6 0 10 -7 10 -16z m3290 -13 c0 -5 15 -15 34 -21
52 -17 62 -34 35 -61 l-23 -23 -33 39 c-32 37 -44 75 -23 75 6 0 10 -4 10 -9z
m-3256 -61 c3 -8 13 -25 22 -37 9 -13 12 -23 6 -23 -5 0 -12 9 -15 21 -7 27
-27 15 -27 -15 0 -13 -6 -36 -14 -52 -11 -23 -12 -41 -4 -85 15 -79 7 -102
-42 -122 -22 -8 -40 -15 -40 -14 0 1 4 17 10 36 6 21 6 49 0 74 -5 23 -6 46
-2 51 3 6 5 20 4 31 -2 11 11 45 27 75 17 30 31 65 31 77 0 12 6 23 13 26 11
4 15 -2 31 -43z m1141 41 c3 -6 -2 -14 -12 -19 -15 -9 -13 -12 17 -25 33 -15
34 -15 9 -16 -35 -1 -67 33 -49 54 14 17 26 19 35 6z m88 -63 c-6 -12 -31 -10
-38 3 -4 6 1 16 11 24 16 12 20 11 25 -3 4 -9 5 -20 2 -24z m2721 -5 c-1 -21
-6 -28 -22 -28 -11 0 -24 -4 -28 -7 -10 -11 -44 11 -44 27 0 10 10 15 28 15
15 0 34 5 42 10 23 15 26 12 24 -17z m-751 0 c28 -9 19 -24 -10 -17 -36 9 -43
13 -43 26 0 6 7 7 18 3 9 -4 25 -10 35 -12z m437 -3 c3 -4 14 -9 25 -11 25 -5
26 -38 2 -53 -15 -9 -21 -7 -33 9 -8 11 -26 33 -41 49 l-27 28 34 -7 c19 -4
37 -11 40 -15z m-150 3 c0 -5 -4 -14 -9 -21 -11 -19 -98 -6 -98 14 0 10 14 14
54 14 29 0 53 -3 53 -7z m604 -81 c7 -22 -16 -83 -39 -102 -16 -13 -16 -9 -10
45 7 54 17 74 37 75 4 0 9 -8 12 -18z m-954 -7 c0 -7 6 -18 14 -22 18 -11 25
-35 15 -55 -6 -10 -5 -19 1 -23 15 -9 2 -25 -19 -25 -14 0 -21 13 -29 55 -11
55 -8 85 9 85 5 0 9 -7 9 -15z m900 -5 c0 -5 -5 -10 -11 -10 -5 0 -7 5 -4 10
3 6 8 10 11 10 2 0 4 -4 4 -10z m-4750 -9 c0 -12 -20 -25 -27 -18 -7 7 6 27
18 27 5 0 9 -4 9 -9z m107 -45 c13 -20 12 -37 -3 -43 -23 -8 -16 -23 10 -23
33 0 40 -14 24 -47 -17 -35 -47 -43 -55 -14 -4 15 -13 21 -34 21 -19 0 -29 5
-29 15 0 8 -7 15 -15 15 -8 0 -15 3 -16 8 0 4 -2 23 -4 43 l-4 36 60 0 c33 0
62 -4 66 -11z m4120 -104 c-5 -31 -18 -45 -31 -32 -8 8 -7 13 4 21 12 9 13 11
1 16 -11 4 -11 7 0 14 17 10 29 2 26 -19z m323 -39 c14 -2 38 -4 53 -6 16 -1
35 -10 42 -20 7 -9 18 -17 26 -17 7 0 2 -8 -11 -17 -14 -9 -28 -20 -31 -25 -3
-4 -29 4 -58 18 -39 20 -55 24 -64 15 -16 -16 -37 -14 -59 6 -17 15 -16 17 25
37 23 12 44 20 47 16 3 -3 16 -6 30 -7z m-246 -57 c-3 -8 -12 -17 -20 -20 -12
-4 -12 -2 -4 14 12 23 32 27 24 6z m40 5 c3 -5 -3 -11 -13 -14 -14 -3 -18 -1
-14 9 6 16 19 18 27 5z m-2886 -192 c-3 -26 -17 -33 -37 -20 -11 7 -10 13 5
34 21 28 37 21 32 -14z m708 -21 l24 -11 -30 -19 c-17 -10 -35 -18 -40 -18
-14 0 -12 40 2 81 l13 34 3 -28 c2 -18 12 -32 28 -39z m305 -85 c22 -20 50
-57 61 -82 12 -26 24 -49 26 -53 8 -17 -38 -7 -72 15 -26 16 -38 33 -46 62 -6
22 -15 50 -20 62 -8 18 -5 33 7 33 2 0 22 -17 44 -37z m1194 16 c-4 -5 -13 -9
-22 -9 -13 0 -13 3 -3 15 13 15 35 11 25 -6z m-3680 -18 c12 -20 -70 -43 -88
-24 -9 8 32 31 60 32 12 1 24 -3 28 -8z m3545 -5 c0 -2 -7 -6 -15 -10 -8 -3
-15 -1 -15 4 0 6 7 10 15 10 8 0 15 -2 15 -4z m-3136 -21 c7 -18 -2 -45 -15
-45 -5 0 -14 10 -19 23 -5 12 -9 19 -9 15 -1 -5 0 -10 2 -12 4 -8 -36 -46 -50
-46 -28 0 -4 56 30 70 33 13 54 12 61 -5z m3081 -5 c10 -17 -23 -28 -64 -23
-42 6 -43 6 -20 19 26 13 77 16 84 4z m-1242 -21 c6 -21 -8 -45 -17 -31 -3 6
-16 8 -29 5 -16 -3 -18 -2 -9 5 11 7 11 10 -3 16 -24 9 -11 21 24 21 19 0 31
-6 34 -16z m1038 -41 c0 -7 2 -56 5 -108 4 -103 20 -170 40 -170 17 0 33 -31
26 -49 -3 -8 -17 -27 -33 -42 -15 -14 -34 -41 -43 -58 -17 -33 -50 -56 -66
-46 -6 3 -10 1 -10 -4 0 -6 5 -11 10 -11 6 0 10 -11 10 -24 0 -32 19 -44 35
-23 9 12 27 17 65 17 41 0 59 5 76 21 22 21 68 29 82 15 9 -10 -18 -26 -44
-26 -12 0 -25 -7 -28 -16 -5 -12 -14 -15 -39 -10 -17 3 -39 1 -47 -4 -12 -8
-11 -10 7 -10 18 0 22 -5 21 -25 -2 -27 -18 -35 -18 -10 0 17 -26 20 -35 5 -5
-7 -11 -8 -18 -1 -7 5 -43 8 -81 7 -58 -1 -70 -4 -72 -20 -4 -27 -11 -30 -44
-16 -17 7 -28 15 -25 18 2 3 0 11 -6 19 -9 10 -8 13 0 13 17 0 3 72 -18 88
-10 8 -29 11 -51 8 -52 -8 -67 5 -44 40 18 26 18 28 1 21 -9 -3 -17 -2 -17 3
0 6 6 10 14 10 8 0 17 15 21 37 3 20 26 62 50 92 54 70 190 203 199 194 3 -3
6 -1 6 5 0 7 5 12 10 12 6 0 19 9 30 20 11 11 15 20 9 20 -5 0 -7 5 -4 10 9
14 25 12 26 -2z m-3070 -78 c20 -11 27 -50 8 -50 -6 0 -18 9 -27 19 -13 15
-33 21 -84 23 -38 2 -68 0 -68 -4 0 -12 -14 -10 -36 7 -17 13 -9 14 84 15 57
0 112 -5 123 -10z m2123 -41 c-3 -5 -9 -9 -13 -9 -11 0 -21 37 -13 45 9 8 33
-26 26 -36z m-418 -11 c-3 -13 -6 -31 -6 -40 0 -21 -26 -48 -46 -48 -13 0 -13
2 0 16 18 18 21 40 5 49 -13 9 18 45 39 45 10 0 13 -7 8 -22z m484 -58 c-6
-22 -15 -40 -20 -40 -11 0 -13 53 -4 87 5 19 8 20 21 8 11 -12 12 -22 3 -55z
m-2095 40 c3 -5 1 -10 -4 -10 -6 0 -11 5 -11 10 0 6 2 10 4 10 3 0 8 -4 11
-10z m1972 -42 c-3 -8 -6 -5 -6 6 -1 11 2 17 5 13 3 -3 4 -12 1 -19z m0 -40
c-3 -8 -6 -5 -6 6 -1 11 2 17 5 13 3 -3 4 -12 1 -19z m-787 -8 c0 -5 -4 -10
-10 -10 -5 0 -10 5 -10 10 0 6 5 10 10 10 6 0 10 -4 10 -10z m868 -35 c-9 -9
-30 14 -23 25 6 9 10 8 17 -4 6 -10 8 -19 6 -21z m-868 -10 c-19 -20 -25 -22
-36 -10 -22 22 -16 30 22 32 l36 2 -22 -24z m-1620 -45 c0 -5 -7 -7 -15 -4 -8
4 -15 8 -15 10 0 2 7 4 15 4 8 0 15 -4 15 -10z m2387 -28 c-14 -17 -22 0 -12
26 5 14 7 14 15 2 5 -9 4 -20 -3 -28z m1627 32 c9 -3 16 -10 16 -14 0 -12 -28
-20 -45 -14 -12 5 -13 10 -4 20 13 16 12 16 33 8z m-3587 -41 c-15 -16 -17
-16 -17 -1 0 9 6 18 13 21 20 7 22 -2 4 -20z m3083 8 c0 -5 -7 -12 -16 -15
-14 -5 -15 -4 -4 9 14 17 20 19 20 6z m605 -11 c3 -5 -1 -10 -9 -10 -9 0 -16
5 -16 10 0 6 4 10 9 10 6 0 13 -4 16 -10z m-283 -30 c-3 -25 -7 -28 -18 -19
-8 6 -14 8 -14 5 0 -4 -8 -2 -18 3 -13 7 -23 6 -31 -2 -10 -9 -11 -8 -6 4 7
19 41 37 71 38 17 1 20 -4 16 -29z m198 10 c0 -5 -4 -10 -9 -10 -6 0 -13 5
-16 10 -3 6 1 10 9 10 9 0 16 -4 16 -10z m-2600 -42 c0 -16 -3 -19 -11 -11 -6
6 -8 16 -5 22 11 17 16 13 16 -11z m2708 6 c22 -8 44 -25 50 -38 7 -16 22 -25
47 -29 40 -6 75 -32 75 -53 0 -7 8 -15 18 -18 9 -3 1 -4 -18 -2 -19 3 -43 8
-53 12 -15 5 -18 2 -17 -17 4 -40 1 -46 -19 -52 -12 -3 -22 1 -25 10 -6 15
-29 15 -26 0 0 -4 -7 -15 -16 -24 -14 -14 -21 -15 -50 -4 -51 18 -87 55 -79
80 6 21 25 29 25 12 0 -10 109 -45 117 -37 3 3 -6 23 -21 44 -30 44 -32 52
-11 52 15 0 22 19 8 21 -43 3 -78 11 -91 18 -14 8 -12 11 12 17 20 5 24 9 14
15 -23 15 18 11 60 -7z m-2578 -38 c0 -5 -7 -3 -15 4 -8 7 -12 17 -9 22 7 10
24 -9 24 -26z m2314 0 c-8 -21 25 -27 46 -9 24 21 103 26 96 6 -3 -7 -1 -15 4
-18 6 -4 10 -15 10 -27 0 -17 -4 -20 -30 -15 -25 5 -35 1 -64 -30 l-34 -36
-46 27 c-25 15 -46 31 -46 37 0 6 -10 3 -22 -5 -31 -22 -41 -20 -55 9 -11 24
-10 25 28 31 22 4 42 10 44 14 3 5 15 6 27 2 14 -3 19 -1 14 6 -3 6 -2 13 4
17 6 4 7 12 3 18 -4 7 -1 7 9 -1 9 -8 15 -19 12 -26z m-147 -4 c-10 -10 -17
-26 -17 -35 0 -17 -18 -33 -27 -24 -9 10 29 77 45 77 13 0 13 -2 -1 -18z
m-2040 -24 c-3 -8 -6 -5 -6 6 -1 11 2 17 5 13 3 -3 4 -12 1 -19z m1177 6 c3
-8 2 -12 -4 -9 -6 3 -10 10 -10 16 0 14 7 11 14 -7z m-360 -74 c-1 -33 -5 -64
-9 -70 -3 -5 -1 -10 4 -10 6 0 11 -9 11 -20 0 -16 -7 -20 -38 -20 -21 0 -43
-5 -49 -11 -8 -8 -14 -6 -22 9 -14 27 -3 53 37 87 24 20 31 33 26 47 -4 14 0
21 15 25 12 3 21 9 21 14 0 5 1 9 3 9 2 0 2 -27 1 -60z m-2474 35 c0 -17 -27
-32 -37 -21 -4 3 2 13 13 21 24 18 24 18 24 0z m3624 -30 c-6 -16 -24 -21 -24
-7 0 11 11 22 21 22 5 0 6 -7 3 -15z m-101 -5 c7 0 5 -5 -5 -10 -19 -12 -51
-3 -42 12 3 5 13 7 21 4 8 -3 20 -6 26 -6z m-3497 -26 c53 -15 67 -29 41 -40
-17 -6 -55 9 -87 35 -30 25 -24 26 46 5z m1574 -4 c0 -5 -4 -10 -10 -10 -5 0
-10 5 -10 10 0 6 5 10 10 10 6 0 10 -4 10 -10z m2729 -9 c10 -6 46 -12 81 -15
34 -2 67 -9 72 -14 15 -15 -66 -26 -92 -12 -12 6 -28 9 -37 6 -8 -4 -42 -1
-75 6 l-59 12 43 12 c24 6 44 12 46 13 2 0 11 -3 21 -8z m-997 -22 c-15 -6
-30 -5 -40 1 -13 7 -8 9 23 9 35 0 37 -1 17 -10z m-3184 -34 c-1 -13 -8 -27
-15 -29 -7 -3 -13 -15 -13 -26 0 -24 -13 -26 -30 -5 -10 12 -9 22 4 50 21 43
57 50 54 10z m4007 5 c-3 -5 -10 -10 -16 -10 -5 0 -9 5 -9 10 0 6 7 10 16 10
8 0 12 -4 9 -10z m-4018 -346 c-3 -3 -12 -4 -19 -1 -8 3 -5 6 6 6 11 1 17 -2
13 -5z m178 -55 c12 -19 -5 -23 -22 -6 -16 16 -16 17 -1 17 9 0 20 -5 23 -11z
m-125 -38 c0 -14 -25 -31 -46 -31 -29 0 -39 16 -18 28 20 11 64 13 64 3z
m2346 -22 c22 -10 48 -19 58 -19 10 0 28 -8 41 -18 27 -22 103 -48 112 -39 3
4 -1 15 -10 25 -10 10 -14 21 -11 25 3 3 -3 11 -14 18 -11 7 -18 19 -15 26 4
10 9 11 19 2 7 -6 18 -8 23 -5 17 11 61 -46 61 -79 0 -16 7 -39 15 -49 8 -11
15 -28 15 -37 0 -17 -3 -17 -41 -4 -23 8 -53 15 -68 15 -14 0 -57 14 -96 30
-38 17 -84 33 -102 36 -19 4 -35 14 -38 25 -4 10 -10 19 -14 19 -20 0 -42 27
-35 44 8 20 34 17 100 -15z m-2237 -65 c46 -23 102 -77 93 -90 -4 -7 -18 -14
-32 -15 -27 -4 -28 -18 -8 -68 6 -14 11 -29 10 -33 -1 -5 3 -8 8 -8 28 0 1
-79 -28 -81 -9 0 -12 -3 -6 -5 8 -3 10 -35 8 -95 -3 -83 -5 -92 -29 -111 -14
-11 -32 -17 -40 -14 -10 3 -15 -1 -16 -12 -1 -16 -2 -16 -6 1 -6 22 -26 22
-47 -2 -14 -15 -15 -24 -6 -40 9 -18 8 -21 -10 -21 -11 0 -20 1 -20 3 0 23
-32 172 -40 187 -6 11 -22 66 -36 123 -14 56 -34 128 -45 160 -10 31 -19 66
-19 78 0 36 31 17 50 -30 23 -60 80 -85 80 -35 0 16 12 36 33 55 17 16 41 38
52 49 24 24 16 23 54 4z m1746 -159 c0 -16 -6 -20 -33 -18 -40 1 -44 5 -36 27
10 26 69 18 69 -9z m92 -167 c-3 -8 -6 -5 -6 6 -1 11 2 17 5 13 3 -3 4 -12 1
-19z m-2073 -69 c15 -18 15 -23 5 -30 -19 -12 -22 -11 -44 5 -16 12 -17 16 -6
30 17 21 23 20 45 -5z m-26 -87 c3 -9 -3 -13 -19 -10 -12 1 -24 9 -27 16 -3 9
3 13 19 10 12 -1 24 -9 27 -16z m4072 -12 c0 -5 -9 -10 -19 -10 -11 0 -23 5
-26 10 -4 6 5 10 19 10 14 0 26 -4 26 -10z m-3230 -10 c0 -5 -2 -10 -4 -10 -3
0 -8 5 -11 10 -3 6 -1 10 4 10 6 0 11 -4 11 -10z m-326 -49 c7 -10 -18 -34
-27 -25 -7 8 3 34 13 34 5 0 11 -4 14 -9z m474 -30 c3 -30 2 -32 -17 -21 -20
10 -28 40 -14 54 14 13 28 -1 31 -33z m3677 -38 c3 -10 6 -20 5 -23 -1 -2 7
-7 17 -11 14 -6 12 -8 -10 -8 -24 -1 -27 2 -22 19 5 14 2 20 -10 20 -9 0 -13
5 -10 10 9 15 22 12 30 -7z m-25 -32 c0 -4 -12 -6 -27 -5 -38 2 -41 4 -18 13
21 9 45 4 45 -8z"/>
<path d="M1963 4664 c-116 -15 -118 -25 -8 -38 22 -2 64 -9 92 -16 43 -9 62
-8 105 5 59 17 122 20 113 5 -4 -6 5 -10 21 -10 26 0 26 1 10 19 -34 38 -187
54 -333 35z"/>
<path d="M2770 4662 c0 -13 62 -22 75 -11 5 6 1 9 -10 9 -11 0 -30 3 -42 6
-13 4 -23 2 -23 -4z"/>
<path d="M3150 4640 c-12 -8 -11 -10 8 -10 12 0 22 5 22 10 0 13 -11 13 -30 0z"/>
<path d="M3082 4629 c-28 -11 -20 -29 14 -29 14 0 24 6 24 14 0 21 -11 25 -38
15z"/>
<path d="M3124 4536 c10 -8 15 -19 11 -25 -7 -13 -38 -15 -49 -4 -4 4 -26 13
-48 20 -34 10 -45 9 -62 -3 -11 -8 -30 -14 -41 -14 -11 0 -42 -12 -70 -25 -56
-28 -84 -30 -170 -14 -51 9 -67 8 -129 -12 -39 -12 -79 -29 -88 -36 -9 -8 -36
-17 -60 -19 -24 -3 -59 -10 -78 -15 -27 -8 -50 -7 -95 4 -33 8 -82 18 -110 22
-27 4 -54 10 -60 13 -23 15 -113 43 -155 48 -24 3 -56 11 -70 18 -42 21 -141
39 -152 28 -12 -12 26 -27 57 -23 12 1 32 -10 45 -24 22 -23 25 -37 27 -105 3
-94 -4 -105 -80 -114 -55 -7 -73 -19 -96 -64 -18 -34 3 -56 43 -47 17 4 48 8
68 9 21 2 44 8 52 15 7 6 38 18 67 27 30 9 64 22 76 30 36 23 103 34 127 21
35 -20 56 -39 51 -47 -10 -16 24 -17 178 -7 108 6 165 6 181 -1 32 -14 128 -7
216 16 41 11 112 22 158 25 76 5 82 4 77 -13 -7 -22 12 -30 90 -37 33 -2 85
-8 114 -12 46 -7 61 -5 93 11 32 17 50 19 116 14 130 -9 166 -14 207 -25 22
-6 61 -11 87 -11 35 0 54 -6 77 -26 35 -29 76 -27 132 9 19 12 54 29 79 38 43
15 45 18 41 50 -7 70 -7 74 15 77 24 3 34 -27 34 -99 0 -39 0 -39 41 -39 58 0
82 15 74 47 -8 33 17 52 72 53 32 0 43 -4 47 -18 8 -24 106 -30 106 -6 0 8 -9
14 -22 14 -12 0 -18 3 -15 6 10 10 -89 53 -137 60 -22 3 -53 15 -68 25 -15 10
-33 19 -41 19 -7 0 -18 5 -24 11 -15 15 -82 13 -115 -3 -25 -13 -54 -42 -81
-81 -7 -10 -24 -19 -37 -21 -14 -2 -33 -7 -43 -11 -28 -12 -81 1 -127 30 -39
25 -49 26 -105 20 -34 -3 -74 -13 -90 -21 -27 -14 -85 -20 -85 -8 0 3 4 13 9
22 8 16 -1 17 -114 14 -101 -3 -123 -1 -128 11 -9 23 60 87 94 87 27 0 97 42
107 64 10 22 8 25 -26 32 -20 4 -44 9 -52 11 -8 1 -31 5 -50 7 -19 2 -53 7
-75 11 -37 6 -38 5 -21 -9z m119 -73 c-7 -2 -19 -2 -25 0 -7 3 -2 5 12 5 14 0
19 -2 13 -5z"/>
<path d="M4203 4166 c-64 -23 -83 -76 -29 -76 19 0 37 -4 41 -9 3 -6 17 -6 36
1 17 6 46 8 65 5 26 -4 34 -2 34 9 0 8 -6 14 -12 13 -27 -3 -38 2 -38 16 0 8
-4 15 -9 15 -5 0 -13 9 -16 20 -7 22 -24 23 -72 6z"/>
<path d="M3030 4105 c0 -8 5 -15 10 -15 6 0 10 7 10 15 0 8 -4 15 -10 15 -5 0
-10 -7 -10 -15z"/>
<path d="M1700 4064 c-52 -13 -102 -24 -110 -24 -23 0 -44 -38 -30 -55 9 -10
3 -16 -24 -26 -20 -7 -36 -17 -36 -21 0 -12 28 -10 35 2 4 7 42 8 107 5 82 -5
104 -3 125 10 20 13 31 14 55 6 46 -16 49 -14 43 22 -4 17 -8 44 -9 58 -6 57
-15 59 -156 23z"/>
<path d="M4120 4026 c0 -16 42 -46 64 -46 14 0 43 38 34 44 -2 2 -24 6 -50 9
-37 5 -48 3 -48 -7z"/>
<path d="M1380 3850 c0 -5 15 -10 33 -9 27 0 29 2 12 9 -28 12 -45 12 -45 0z"/>
<path d="M1832 3600 c0 -14 2 -19 5 -12 2 6 2 18 0 25 -3 6 -5 1 -5 -13z"/>
<path d="M3246 3581 c-5 -7 -3 -18 3 -24 14 -14 20 -6 11 17 -5 15 -9 16 -14
7z"/>
<path d="M3300 3539 c0 -6 -7 -9 -15 -5 -21 8 -19 -6 3 -24 26 -21 41 -22 37
-2 -2 9 -4 23 -4 30 -1 15 -21 16 -21 1z"/>
<path d="M3260 3481 c-6 -13 -6 -22 -1 -26 9 -5 31 24 31 39 0 14 -20 4 -30
-13z"/>
<path d="M3351 3484 c0 -11 3 -14 6 -6 3 7 2 16 -1 19 -3 4 -6 -2 -5 -13z"/>
<path d="M3392 3428 c-20 -20 -14 -45 13 -52 34 -9 41 -3 40 31 -2 31 -31 43
-53 21z"/>
<path d="M4000 3461 c0 -11 -3 -28 -7 -38 -5 -13 3 -10 29 12 39 33 39 45 2
45 -17 0 -24 -6 -24 -19z"/>
<path d="M4040 3390 c-12 -8 -10 -10 8 -10 13 0 20 4 17 10 -7 12 -6 12 -25 0z"/>
<path d="M4205 3251 c-3 -5 -1 -12 5 -16 5 -3 10 1 10 9 0 18 -6 21 -15 7z"/>
<path d="M3875 3230 c19 -21 37 -18 28 5 -3 8 -14 15 -26 15 -19 0 -19 -1 -2
-20z"/>
<path d="M4068 3193 c6 -2 18 -2 25 0 6 3 1 5 -13 5 -14 0 -19 -2 -12 -5z"/>
<path d="M4181 3154 c0 -11 3 -14 6 -6 3 7 2 16 -1 19 -3 4 -6 -2 -5 -13z"/>
<path d="M2251 3324 c0 -11 3 -14 6 -6 3 7 2 16 -1 19 -3 4 -6 -2 -5 -13z"/>
<path d="M4051 2404 c0 -11 3 -14 6 -6 3 7 2 16 -1 19 -3 4 -6 -2 -5 -13z"/>
<path d="M235 2390 c-3 -5 -2 -10 4 -10 5 0 13 5 16 10 3 6 2 10 -4 10 -5 0
-13 -4 -16 -10z"/>
<path d="M2650 1900 c0 -5 5 -10 10 -10 6 0 10 5 10 10 0 6 -4 10 -10 10 -5 0
-10 -4 -10 -10z"/>
<path d="M3235 1468 c-4 -10 -5 -25 -1 -33 6 -17 26 -21 26 -5 0 6 7 10 15 10
9 0 12 6 8 16 -3 8 -11 13 -19 10 -7 -3 -15 0 -17 7 -3 8 -7 6 -12 -5z"/>
<path d="M299 592 c-19 -24 -19 -27 -4 -30 18 -4 75 17 75 27 0 3 -11 11 -25
18 -22 10 -27 8 -46 -15z m21 -12 c0 -5 -2 -10 -4 -10 -3 0 -8 5 -11 10 -3 6
-1 10 4 10 6 0 11 -4 11 -10z"/>
<path d="M338 478 c-34 -12 -36 -35 -7 -72 31 -40 71 -33 81 14 6 29 4 38 -13
53 -24 19 -24 19 -61 5z"/>
<path d="M1370 5110 c0 -12 30 -12 85 -1 38 8 37 9 -22 10 -36 1 -63 -3 -63
-9z"/>
<path d="M1568 5113 c29 -2 74 -2 100 0 26 2 2 3 -53 3 -55 0 -76 -1 -47 -3z"/>
<path d="M1720 5109 c0 -5 5 -7 10 -4 6 3 10 8 10 11 0 2 -4 4 -10 4 -5 0 -10
-5 -10 -11z"/>
<path d="M3943 5112 c-19 -12 53 -65 78 -57 16 5 39 40 39 61 0 7 -104 4 -117
-4z"/>
<path d="M4060 5015 c-6 -8 -10 -22 -8 -32 3 -13 7 -9 15 15 13 35 12 39 -7
17z"/>
<path d="M1830 5005 c0 -8 2 -15 4 -15 2 0 11 -3 20 -6 23 -9 20 9 -4 24 -17
10 -20 10 -20 -3z"/>
<path d="M3057 3014 c-4 -4 -15 -9 -25 -10 -94 -14 -136 -40 -86 -54 11 -3 19
-9 19 -15 -1 -17 -16 -36 -25 -30 -5 3 -21 0 -36 -6 -22 -8 -25 -12 -14 -19 8
-5 18 -7 22 -4 4 3 25 0 47 -7 32 -9 47 -9 90 6 28 9 51 20 52 23 0 4 2 21 3
38 4 33 -32 92 -47 78z"/>
<path d="M3175 2920 c-10 -11 -14 -20 -8 -20 5 0 18 9 28 20 10 11 14 20 8 20
-5 0 -18 -9 -28 -20z"/>
<path d="M3305 2860 c-3 -5 -2 -10 4 -10 5 0 13 5 16 10 3 6 2 10 -4 10 -5 0
-13 -4 -16 -10z"/>
<path d="M5063 2724 c-20 -22 -21 -27 -9 -40 11 -11 21 -12 41 -4 21 8 26 16
23 37 -4 36 -28 39 -55 7z"/>
<path d="M4988 2673 c7 -3 16 -2 19 1 4 3 -2 6 -13 5 -11 0 -14 -3 -6 -6z"/>
<path d="M2897 2658 c-15 -5 -25 -13 -23 -17 7 -10 66 -1 66 10 0 14 -14 17
-43 7z"/>
<path d="M2912 2583 c4 -22 38 -30 38 -10 0 8 -7 18 -16 21 -23 9 -26 8 -22
-11z"/>
<path d="M3600 2540 c0 -5 5 -10 11 -10 5 0 7 5 4 10 -3 6 -8 10 -11 10 -2 0
-4 -4 -4 -10z"/>
<path d="M0 2440 c0 -5 5 -10 10 -10 6 0 10 5 10 10 0 6 -4 10 -10 10 -5 0
-10 -4 -10 -10z"/>
<path d="M32 2420 c0 -14 2 -19 5 -12 2 6 2 18 0 25 -3 6 -5 1 -5 -13z"/>
<path d="M1726 2325 c4 -8 8 -15 10 -15 2 0 4 7 4 15 0 8 -4 15 -10 15 -5 0
-7 -7 -4 -15z"/>
<path d="M1233 2189 c-16 -16 -17 -59 -3 -59 14 0 22 23 18 50 -2 17 -5 19
-15 9z"/>
<path d="M1760 2168 c0 -18 5 -28 15 -28 19 0 19 11 0 36 -14 18 -14 18 -15
-8z"/>
<path d="M4620 2155 c-8 -9 -8 -15 -2 -15 12 0 26 19 19 26 -2 2 -10 -2 -17
-11z"/>
<path d="M1880 2140 c0 -5 5 -10 10 -10 6 0 10 5 10 10 0 6 -4 10 -10 10 -5 0
-10 -4 -10 -10z"/>
<path d="M1341 2124 c0 -11 3 -14 6 -6 3 7 2 16 -1 19 -3 4 -6 -2 -5 -13z"/>
<path d="M1864 2094 c-11 -12 -26 -23 -32 -25 -12 -4 -21 -163 -10 -174 14
-14 44 6 57 37 8 18 19 36 24 39 14 10 12 79 -4 114 l-14 30 -21 -21z"/>
<path d="M1160 2061 c-18 -34 -4 -161 18 -161 13 0 52 89 52 119 0 19 -8 34
-25 45 -31 20 -32 20 -45 -3z"/>
<path d="M5001 2064 c0 -11 3 -14 6 -6 3 7 2 16 -1 19 -3 4 -6 -2 -5 -13z"/>
<path d="M4285 1930 c-3 -5 3 -10 14 -10 12 0 21 5 21 10 0 6 -6 10 -14 10 -8
0 -18 -4 -21 -10z"/>
<path d="M1766 1864 c-4 -10 -1 -21 6 -26 19 -11 22 -10 36 12 7 11 8 20 3 20
-5 0 -16 3 -24 6 -8 3 -17 -2 -21 -12z"/>
<path d="M4756 1839 c-14 -14 -23 -16 -37 -8 -27 14 -51 8 -72 -18 -10 -13
-24 -23 -31 -23 -20 0 -66 -40 -66 -57 0 -11 4 -13 13 -6 16 13 68 6 88 -13 8
-8 23 -14 32 -14 21 0 63 56 75 100 5 19 14 34 21 33 6 -2 11 1 11 6 0 18 -15
18 -34 0z"/>
<path d="M1776 1751 c-12 -13 -14 -21 -6 -26 13 -8 40 12 40 31 0 20 -14 17
-34 -5z"/>
<path d="M4455 1739 c-6 -8 -18 -19 -28 -22 -12 -5 -17 -15 -15 -29 4 -27 26
-34 53 -15 16 12 17 20 9 48 -8 28 -12 31 -19 18z"/>
<path d="M1746 1671 c-4 -7 -5 -15 -2 -18 9 -9 19 4 14 18 -4 11 -6 11 -12 0z"/>
<path d="M1770 1651 c0 -5 7 -12 16 -15 14 -5 15 -4 4 9 -14 17 -20 19 -20 6z"/>
<path d="M1838 1620 c3 -21 8 -28 14 -22 12 12 7 44 -8 49 -7 2 -9 -8 -6 -27z"/>
<path d="M1869 1310 c-3 -32 3 -56 16 -69 12 -13 13 -9 8 25 -6 41 -22 70 -24
44z"/>
<path d="M4914 1216 c-3 -9 -10 -13 -15 -10 -5 3 -9 3 -9 0 0 -10 81 -47 95
-44 9 2 -1 16 -25 36 -33 27 -41 30 -46 18z"/>
<path d="M5080 1180 c0 -5 5 -10 11 -10 5 0 7 5 4 10 -3 6 -8 10 -11 10 -2 0
-4 -4 -4 -10z"/>
<path d="M4863 1160 c-32 -13 -29 -26 8 -34 47 -9 49 -8 49 19 0 27 -17 31
-57 15z"/>
<path d="M4915 1100 c3 -5 8 -10 11 -10 2 0 4 5 4 10 0 6 -5 10 -11 10 -5 0
-7 -4 -4 -10z"/>
<path d="M1593 1052 c-25 -4 -32 -32 -9 -32 13 0 43 28 35 33 -2 2 -14 1 -26
-1z"/>
<path d="M2324 1019 c-3 -6 -1 -16 5 -22 8 -8 11 -5 11 11 0 24 -5 28 -16 11z"/>
<path d="M2786 942 c-10 -16 13 -35 43 -37 18 -1 30 2 29 7 -2 5 -7 8 -11 6
-5 -2 -13 5 -18 15 -10 18 -34 23 -43 9z"/>
<path d="M1085 894 c3 -40 20 -112 32 -144 4 -11 9 -7 19 15 18 40 17 65 -1
65 -8 0 -15 6 -16 13 0 6 -9 30 -19 52 l-19 40 4 -41z"/>
<path d="M1610 856 c0 -8 7 -16 15 -20 13 -4 14 -2 5 14 -13 23 -20 26 -20 6z"/>
<path d="M3147 763 c-16 -15 -5 -23 33 -23 22 0 40 4 40 9 0 17 -59 29 -73 14z"/>
<path d="M3935 710 c-10 -33 26 -77 59 -71 21 4 64 -22 75 -45 13 -28 29 -28
45 2 6 10 17 23 24 27 22 14 15 40 -10 34 -17 -5 -31 3 -58 33 -33 35 -42 40
-83 40 -37 0 -47 -4 -52 -20z"/>
<path d="M3651 683 c-14 -49 -14 -53 3 -53 8 0 22 -7 31 -17 31 -31 40 12 19
90 -10 32 -42 20 -53 -20z"/>
<path d="M4460 699 c0 -12 5 -19 12 -17 18 6 20 25 3 31 -10 5 -15 0 -15 -14z"/>
<path d="M4959 683 c-1 -18 -3 -34 -13 -85 -4 -20 0 -30 14 -38 35 -19 50 -2
50 57 0 33 -4 52 -10 48 -5 -3 -10 3 -10 14 0 25 -30 28 -31 4z"/>
<path d="M3762 603 c-7 -3 -17 -13 -22 -24 -9 -16 -7 -19 9 -19 11 0 25 9 31
19 11 21 3 31 -18 24z"/>
<path d="M3820 550 c0 -5 12 -10 28 -10 21 0 24 2 12 10 -20 13 -40 13 -40 0z"/>
<path d="M1571 453 c-1 -32 4 -45 19 -53 11 -6 17 -16 14 -25 -7 -17 -56 -11
-92 12 -20 13 -23 12 -31 -9 -5 -13 -6 -29 -4 -35 3 -8 -3 -13 -16 -13 -14 0
-21 -6 -21 -20 0 -14 14 -26 45 -41 l45 -21 49 21 c28 11 58 21 69 21 29 0 46
24 28 39 -8 7 -13 21 -11 31 2 12 -5 22 -24 29 -28 12 -49 39 -62 81 -6 21 -7
18 -8 -17z"/>
<path d="M1420 409 c0 -17 20 -49 30 -49 14 0 12 34 -2 48 -15 15 -28 15 -28
1z"/>
<path d="M1756 15 c-3 -8 -1 -15 4 -15 13 0 22 18 11 24 -5 3 -11 -1 -15 -9z"/>
<path d="M4252 15 c-11 -13 -9 -15 8 -15 11 0 20 7 20 15 0 19 -11 19 -28 0z"/>
</g>
</svg>
